<?xml version="1.0" encoding="utf-8" standalone="no"?>
<!DOCTYPE svg PUBLIC "-//W3C//DTD SVG 1.1//EN"
  "http://www.w3.org/Graphics/SVG/1.1/DTD/svg11.dtd">
<svg xmlns:xlink="http://www.w3.org/1999/xlink" width="712.184353pt" height="339.4pt" viewBox="0 0 712.184353 339.4" xmlns="http://www.w3.org/2000/svg" version="1.1">
 <metadata>
  <rdf:RDF xmlns:dc="http://purl.org/dc/elements/1.1/" xmlns:cc="http://creativecommons.org/ns#" xmlns:rdf="http://www.w3.org/1999/02/22-rdf-syntax-ns#">
   <cc:Work>
    <dc:type rdf:resource="http://purl.org/dc/dcmitype/StillImage"/>
    <dc:date>2026-04-26T08:43:15.422493</dc:date>
    <dc:format>image/svg+xml</dc:format>
    <dc:creator>
     <cc:Agent>
      <dc:title>Matplotlib v3.10.8, https://matplotlib.org/</dc:title>
     </cc:Agent>
    </dc:creator>
   </cc:Work>
  </rdf:RDF>
 </metadata>
 <defs>
  <style type="text/css">*{stroke-linejoin: round; stroke-linecap: butt}</style>
 </defs>
 <rect width="100%" height="100%" fill="white"/>
 <g id="figure_1">
  <g id="patch_1">
   <path d="M 0 339.4 
L 712.184353 339.4 
L 712.184353 0 
L 0 0 
L 0 339.4 
z
" style="fill: none"/>
  </g>
  <g id="axes_1">
   <g id="patch_2">
    <path d="M 517.68 187.48 
L 517.68 129.88 
L 585.899978 129.88 
L 585.899978 187.48 
L 517.68 187.48 
z
" clip-path="url(#pf750c6f2de)" style="fill: none"/>
   </g>
   <g id="line2d_1">
    <path d="M 517.68 187.48 
L 517.68 129.88 
L 585.899978 129.88 
L 585.899978 187.48 
L 517.68 187.48 
" clip-path="url(#pf750c6f2de)" style="fill: none; stroke: #000000; stroke-width: 2; stroke-linecap: round"/>
   </g>
   <g id="patch_3">
    <path d="M 526.68 140.68 
L 526.968316 140.689246 
L 527.255447 140.716945 
L 527.540214 140.762984 
L 527.821446 140.827173 
L 528.097987 140.909249 
L 528.368702 141.008875 
L 528.632477 141.12564 
L 528.888229 141.259066 
L 529.134907 141.408604 
L 529.371497 141.573639 
L 529.597028 141.753493 
L 529.810571 141.947428 
L 530.011251 142.154646 
L 530.198242 142.374296 
L 530.370775 142.605475 
L 530.528142 142.847233 
L 530.669697 143.098578 
L 530.794857 143.358475 
L 530.903108 143.625857 
L 530.994005 143.899626 
L 531.067176 144.178656 
L 531.122318 144.4618 
L 531.159206 144.747896 
L 531.177688 145.035768 
L 531.177688 145.324232 
L 531.159206 145.612104 
L 531.122318 145.8982 
L 531.067176 146.181344 
L 530.994005 146.460374 
L 530.903108 146.734143 
L 530.794857 147.001525 
L 530.669697 147.261422 
L 530.528142 147.512767 
L 530.370775 147.754525 
L 530.198242 147.985704 
L 530.011251 148.205354 
L 529.810571 148.412572 
L 529.597028 148.606507 
L 529.371497 148.786361 
L 529.134907 148.951396 
L 528.888229 149.100934 
L 528.632477 149.23436 
L 528.368702 149.351125 
L 528.097987 149.450751 
L 527.821446 149.532827 
L 527.540214 149.597016 
L 527.255447 149.643055 
L 526.968316 149.670754 
L 526.68 149.68 
" clip-path="url(#pf750c6f2de)" style="fill: none; stroke: #000000; stroke-width: 2; stroke-linejoin: miter"/>
   </g>
   <g id="patch_4">
    <path d="M 526.68 149.68 
L 526.968316 149.689246 
L 527.255447 149.716945 
L 527.540214 149.762984 
L 527.821446 149.827173 
L 528.097987 149.909249 
L 528.368702 150.008875 
L 528.632477 150.12564 
L 528.888229 150.259066 
L 529.134907 150.408604 
L 529.371497 150.573639 
L 529.597028 150.753493 
L 529.810571 150.947428 
L 530.011251 151.154646 
L 530.198242 151.374296 
L 530.370775 151.605475 
L 530.528142 151.847233 
L 530.669697 152.098578 
L 530.794857 152.358475 
L 530.903108 152.625857 
L 530.994005 152.899626 
L 531.067176 153.178656 
L 531.122318 153.4618 
L 531.159206 153.747896 
L 531.177688 154.035768 
L 531.177688 154.324232 
L 531.159206 154.612104 
L 531.122318 154.8982 
L 531.067176 155.181344 
L 530.994005 155.460374 
L 530.903108 155.734143 
L 530.794857 156.001525 
L 530.669697 156.261422 
L 530.528142 156.512767 
L 530.370775 156.754525 
L 530.198242 156.985704 
L 530.011251 157.205354 
L 529.810571 157.412572 
L 529.597028 157.606507 
L 529.371497 157.786361 
L 529.134907 157.951396 
L 528.888229 158.100934 
L 528.632477 158.23436 
L 528.368702 158.351125 
L 528.097987 158.450751 
L 527.821446 158.532827 
L 527.540214 158.597016 
L 527.255447 158.643055 
L 526.968316 158.670754 
L 526.68 158.68 
" clip-path="url(#pf750c6f2de)" style="fill: none; stroke: #000000; stroke-width: 2; stroke-linejoin: miter"/>
   </g>
   <g id="patch_5">
    <path d="M 526.68 158.68 
L 526.968316 158.689246 
L 527.255447 158.716945 
L 527.540214 158.762984 
L 527.821446 158.827173 
L 528.097987 158.909249 
L 528.368702 159.008875 
L 528.632477 159.12564 
L 528.888229 159.259066 
L 529.134907 159.408604 
L 529.371497 159.573639 
L 529.597028 159.753493 
L 529.810571 159.947428 
L 530.011251 160.154646 
L 530.198242 160.374296 
L 530.370775 160.605475 
L 530.528142 160.847233 
L 530.669697 161.098578 
L 530.794857 161.358475 
L 530.903108 161.625857 
L 530.994005 161.899626 
L 531.067176 162.178656 
L 531.122318 162.4618 
L 531.159206 162.747896 
L 531.177688 163.035768 
L 531.177688 163.324232 
L 531.159206 163.612104 
L 531.122318 163.8982 
L 531.067176 164.181344 
L 530.994005 164.460374 
L 530.903108 164.734143 
L 530.794857 165.001525 
L 530.669697 165.261422 
L 530.528142 165.512767 
L 530.370775 165.754525 
L 530.198242 165.985704 
L 530.011251 166.205354 
L 529.810571 166.412572 
L 529.597028 166.606507 
L 529.371497 166.786361 
L 529.134907 166.951396 
L 528.888229 167.100934 
L 528.632477 167.23436 
L 528.368702 167.351125 
L 528.097987 167.450751 
L 527.821446 167.532827 
L 527.540214 167.597016 
L 527.255447 167.643055 
L 526.968316 167.670754 
L 526.68 167.68 
" clip-path="url(#pf750c6f2de)" style="fill: none; stroke: #000000; stroke-width: 2; stroke-linejoin: miter"/>
   </g>
   <g id="patch_6">
    <path d="M 526.68 167.68 
L 526.968316 167.689246 
L 527.255447 167.716945 
L 527.540214 167.762984 
L 527.821446 167.827173 
L 528.097987 167.909249 
L 528.368702 168.008875 
L 528.632477 168.12564 
L 528.888229 168.259066 
L 529.134907 168.408604 
L 529.371497 168.573639 
L 529.597028 168.753493 
L 529.810571 168.947428 
L 530.011251 169.154646 
L 530.198242 169.374296 
L 530.370775 169.605475 
L 530.528142 169.847233 
L 530.669697 170.098578 
L 530.794857 170.358475 
L 530.903108 170.625857 
L 530.994005 170.899626 
L 531.067176 171.178656 
L 531.122318 171.4618 
L 531.159206 171.747896 
L 531.177688 172.035768 
L 531.177688 172.324232 
L 531.159206 172.612104 
L 531.122318 172.8982 
L 531.067176 173.181344 
L 530.994005 173.460374 
L 530.903108 173.734143 
L 530.794857 174.001525 
L 530.669697 174.261422 
L 530.528142 174.512767 
L 530.370775 174.754525 
L 530.198242 174.985704 
L 530.011251 175.205354 
L 529.810571 175.412572 
L 529.597028 175.606507 
L 529.371497 175.786361 
L 529.134907 175.951396 
L 528.888229 176.100934 
L 528.632477 176.23436 
L 528.368702 176.351125 
L 528.097987 176.450751 
L 527.821446 176.532827 
L 527.540214 176.597016 
L 527.255447 176.643055 
L 526.968316 176.670754 
L 526.68 176.68 
" clip-path="url(#pf750c6f2de)" style="fill: none; stroke: #000000; stroke-width: 2; stroke-linejoin: miter"/>
   </g>
   <g id="line2d_2">
    <path d="M 4.68 293.68 
L 112.68 293.68 
L 112.68 203.68 
L 4.68 203.68 
L 4.68 293.68 
" clip-path="url(#pf750c6f2de)" style="fill: none; stroke: #000000; stroke-width: 2; stroke-linecap: round"/>
   </g>
   <g id="line2d_3">
    <path d="M 112.68 248.68 
L 130.68 248.68 
" clip-path="url(#pf750c6f2de)" style="fill: none; stroke: #000000; stroke-width: 2; stroke-linecap: round"/>
   </g>
   <g id="line2d_4">
    <path d="M 58.68 293.68 
L 58.68 311.68 
" clip-path="url(#pf750c6f2de)" style="fill: none; stroke: #000000; stroke-width: 2; stroke-linecap: round"/>
   </g>
   <g id="line2d_5">
    <path d="M 58.68 311.68 
L 58.68 326.08 
L 49.68 326.08 
L 67.68 326.08 
M 52.38 330.4 
L 64.98 330.4 
M 56.88 334.72 
L 60.48 334.72 
" clip-path="url(#pf750c6f2de)" style="fill: none; stroke: #000000; stroke-width: 2; stroke-linecap: round"/>
   </g>
   <g id="line2d_6">
    <path d="M 130.68 248.68 
L 175.68 248.68 
L 220.68 248.68 
" clip-path="url(#pf750c6f2de)" style="fill: none; stroke: #000000; stroke-width: 2; stroke-linecap: round"/>
   </g>
   <g id="line2d_7">
    <path d="M 220.68 248.68 
L 346.68 248.68 
L 346.68 140.68 
L 220.68 140.68 
L 220.68 248.68 
" clip-path="url(#pf750c6f2de)" style="fill: none; stroke: #000000; stroke-width: 2; stroke-linecap: round"/>
   </g>
   <g id="line2d_8">
    <path d="M 220.68 194.68 
L 202.68 194.68 
" clip-path="url(#pf750c6f2de)" style="fill: none; stroke: #000000; stroke-width: 2; stroke-linecap: round"/>
   </g>
   <g id="line2d_9">
    <path d="M 346.68 194.68 
L 364.68 194.68 
" clip-path="url(#pf750c6f2de)" style="fill: none; stroke: #000000; stroke-width: 2; stroke-linecap: round"/>
   </g>
   <g id="line2d_10">
    <path d="M 283.68 140.68 
L 283.68 122.68 
" clip-path="url(#pf750c6f2de)" style="fill: none; stroke: #000000; stroke-width: 2; stroke-linecap: round"/>
   </g>
   <g id="line2d_11">
    <path d="M 283.68 248.68 
L 283.68 266.68 
" clip-path="url(#pf750c6f2de)" style="fill: none; stroke: #000000; stroke-width: 2; stroke-linecap: round"/>
   </g>
   <g id="line2d_12">
    <path d="M 283.68 266.68 
L 283.68 281.08 
L 274.68 281.08 
L 292.68 281.08 
M 277.38 285.4 
L 289.98 285.4 
M 281.88 289.72 
L 285.48 289.72 
" clip-path="url(#pf750c6f2de)" style="fill: none; stroke: #000000; stroke-width: 2; stroke-linecap: round"/>
   </g>
   <g id="line2d_13">
    <path d="M 526.68 122.68 
L 526.68 140.68 
M 526.68 176.68 
L 526.68 194.68 
" clip-path="url(#pf750c6f2de)" style="fill: none; stroke: #000000; stroke-width: 2; stroke-linecap: round"/>
   </g>
   <g id="line2d_14">
    <path d="M 536.579978 140.68 
L 536.579978 158.68 
L 536.579978 176.68 
" clip-path="url(#pf750c6f2de)" style="fill: none; stroke: #000000; stroke-width: 2; stroke-linecap: round"/>
   </g>
   <g id="line2d_15">
    <path d="M 560.699978 122.68 
L 560.699978 140.68 
M 564.299978 149.32 
L 576.899978 169.48 
M 560.699978 176.68 
L 560.699978 194.68 
" clip-path="url(#pf750c6f2de)" style="fill: none; stroke: #000000; stroke-width: 2; stroke-linecap: round"/>
   </g>
   <g id="line2d_16">
    <path d="M 538.379978 158.68 
L 546.389967 158.68 
L 554.399955 158.68 
" clip-path="url(#pf750c6f2de)" style="fill: none; stroke-dasharray: 2,3.3; stroke-dashoffset: 0; stroke: #000000; stroke-width: 2"/>
   </g>
   <g id="line2d_17">
    <path d="M 364.68 194.68 
L 445.68 194.68 
L 526.68 194.68 
" clip-path="url(#pf750c6f2de)" style="fill: none; stroke: #000000; stroke-width: 2; stroke-linecap: round"/>
   </g>
   <g id="line2d_18">
    <path d="M 526.68 122.68 
L 526.68 77.68 
L 526.68 32.68 
" clip-path="url(#pf750c6f2de)" style="fill: none; stroke: #000000; stroke-width: 2; stroke-linecap: round"/>
   </g>
   <g id="line2d_19">
    <path d="M 283.68 122.68 
L 283.68 77.68 
L 283.68 32.68 
" clip-path="url(#pf750c6f2de)" style="fill: none; stroke: #000000; stroke-width: 2; stroke-linecap: round"/>
   </g>
   <g id="line2d_20">
    <path d="M 283.68 32.68 
L 405.18 32.68 
L 526.68 32.68 
" clip-path="url(#pf750c6f2de)" style="fill: none; stroke: #000000; stroke-width: 2; stroke-linecap: round"/>
   </g>
   <g id="line2d_21">
    <path d="M 283.68 32.68 
L 283.68 18.28 
" clip-path="url(#pf750c6f2de)" style="fill: none; stroke: #000000; stroke-width: 2; stroke-linecap: round"/>
   </g>
   <g id="line2d_22">
    <path d="M 283.68 18.28 
L 276.93 18.28 
" clip-path="url(#pf750c6f2de)" style="fill: none; stroke: #000000; stroke-width: 2; stroke-linecap: round"/>
   </g>
   <g id="line2d_23">
    <path d="M 283.68 18.28 
L 290.43 18.28 
" clip-path="url(#pf750c6f2de)" style="fill: none; stroke: #000000; stroke-width: 2; stroke-linecap: round"/>
   </g>
   <g id="line2d_24">
    <path d="M 405.18 32.68 
L 405.18 74.44 
M 414.18 74.44 
L 396.18 74.44 
M 414.18 80.92 
L 396.18 80.92 
M 405.18 80.92 
L 405.18 122.68 
" clip-path="url(#pf750c6f2de)" style="fill: none; stroke: #000000; stroke-width: 2; stroke-linecap: round"/>
   </g>
   <g id="line2d_25">
    <path d="M 405.18 122.68 
L 405.18 137.08 
L 396.18 137.08 
L 414.18 137.08 
M 398.88 141.4 
L 411.48 141.4 
M 403.38 145.72 
L 406.98 145.72 
" clip-path="url(#pf750c6f2de)" style="fill: none; stroke: #000000; stroke-width: 2; stroke-linecap: round"/>
   </g>
   <g id="line2d_26">
    <path d="M 560.699978 122.68 
L 539.099978 122.68 
L 517.499978 122.68 
" clip-path="url(#pf750c6f2de)" style="fill: none; stroke: #000000; stroke-width: 2; stroke-linecap: round"/>
   </g>
   <g id="line2d_27">
    <path d="M 517.499978 122.68 
L 517.499978 137.08 
L 508.499978 137.08 
L 526.499978 137.08 
M 511.199978 141.4 
L 523.799978 141.4 
M 515.699978 145.72 
L 519.299978 145.72 
" clip-path="url(#pf750c6f2de)" style="fill: none; stroke: #000000; stroke-width: 2; stroke-linecap: round"/>
   </g>
   <g id="line2d_28">
    <path d="M 560.699978 194.68 
L 587.699978 194.68 
L 614.699978 194.68 
" clip-path="url(#pf750c6f2de)" style="fill: none; stroke: #000000; stroke-width: 2; stroke-linecap: round"/>
   </g>
   <g id="text_1">
    <!-- GPIO -->
    <g transform="translate(115.38 232.740469) scale(0.11 -0.11)">
     <defs>
      <path id="DejaVuSans-47" d="M 3809 666 
L 3809 1919 
L 2778 1919 
L 2778 2438 
L 4434 2438 
L 4434 434 
Q 4069 175 3628 42 
Q 3188 -91 2688 -91 
Q 1594 -91 976 548 
Q 359 1188 359 2328 
Q 359 3472 976 4111 
Q 1594 4750 2688 4750 
Q 3144 4750 3555 4637 
Q 3966 4525 4313 4306 
L 4313 3634 
Q 3963 3931 3569 4081 
Q 3175 4231 2741 4231 
Q 1884 4231 1454 3753 
Q 1025 3275 1025 2328 
Q 1025 1384 1454 906 
Q 1884 428 2741 428 
Q 3075 428 3337 486 
Q 3600 544 3809 666 
z
" transform="scale(0.015625)"/>
      <path id="DejaVuSans-50" d="M 1259 4147 
L 1259 2394 
L 2053 2394 
Q 2494 2394 2734 2622 
Q 2975 2850 2975 3272 
Q 2975 3691 2734 3919 
Q 2494 4147 2053 4147 
L 1259 4147 
z
M 628 4666 
L 2053 4666 
Q 2838 4666 3239 4311 
Q 3641 3956 3641 3272 
Q 3641 2581 3239 2228 
Q 2838 1875 2053 1875 
L 1259 1875 
L 1259 0 
L 628 0 
L 628 4666 
z
" transform="scale(0.015625)"/>
      <path id="DejaVuSans-49" d="M 628 4666 
L 1259 4666 
L 1259 0 
L 628 0 
L 628 4666 
z
" transform="scale(0.015625)"/>
      <path id="DejaVuSans-4f" d="M 2522 4238 
Q 1834 4238 1429 3725 
Q 1025 3213 1025 2328 
Q 1025 1447 1429 934 
Q 1834 422 2522 422 
Q 3209 422 3611 934 
Q 4013 1447 4013 2328 
Q 4013 3213 3611 3725 
Q 3209 4238 2522 4238 
z
M 2522 4750 
Q 3503 4750 4090 4092 
Q 4678 3434 4678 2328 
Q 4678 1225 4090 567 
Q 3503 -91 2522 -91 
Q 1538 -91 948 565 
Q 359 1222 359 2328 
Q 359 3434 948 4092 
Q 1538 4750 2522 4750 
z
" transform="scale(0.015625)"/>
     </defs>
     <use xlink:href="#DejaVuSans-47"/>
     <use xlink:href="#DejaVuSans-50" transform="translate(77.490234 0)"/>
     <use xlink:href="#DejaVuSans-49" transform="translate(137.792969 0)"/>
     <use xlink:href="#DejaVuSans-4f" transform="translate(167.285156 0)"/>
    </g>
    <!-- BTN_A -->
    <g transform="translate(115.38 243.386406) scale(0.11 -0.11)">
     <defs>
      <path id="DejaVuSans-42" d="M 1259 2228 
L 1259 519 
L 2272 519 
Q 2781 519 3026 730 
Q 3272 941 3272 1375 
Q 3272 1813 3026 2020 
Q 2781 2228 2272 2228 
L 1259 2228 
z
M 1259 4147 
L 1259 2741 
L 2194 2741 
Q 2656 2741 2882 2914 
Q 3109 3088 3109 3444 
Q 3109 3797 2882 3972 
Q 2656 4147 2194 4147 
L 1259 4147 
z
M 628 4666 
L 2241 4666 
Q 2963 4666 3353 4366 
Q 3744 4066 3744 3513 
Q 3744 3084 3544 2831 
Q 3344 2578 2956 2516 
Q 3422 2416 3680 2098 
Q 3938 1781 3938 1306 
Q 3938 681 3513 340 
Q 3088 0 2303 0 
L 628 0 
L 628 4666 
z
" transform="scale(0.015625)"/>
      <path id="DejaVuSans-54" d="M -19 4666 
L 3928 4666 
L 3928 4134 
L 2272 4134 
L 2272 0 
L 1638 0 
L 1638 4134 
L -19 4134 
L -19 4666 
z
" transform="scale(0.015625)"/>
      <path id="DejaVuSans-4e" d="M 628 4666 
L 1478 4666 
L 3547 763 
L 3547 4666 
L 4159 4666 
L 4159 0 
L 3309 0 
L 1241 3903 
L 1241 0 
L 628 0 
L 628 4666 
z
" transform="scale(0.015625)"/>
      <path id="DejaVuSans-5f" d="M 3263 -1063 
L 3263 -1509 
L -63 -1509 
L -63 -1063 
L 3263 -1063 
z
" transform="scale(0.015625)"/>
      <path id="DejaVuSans-41" d="M 2188 4044 
L 1331 1722 
L 3047 1722 
L 2188 4044 
z
M 1831 4666 
L 2547 4666 
L 4325 0 
L 3669 0 
L 3244 1197 
L 1141 1197 
L 716 0 
L 50 0 
L 1831 4666 
z
" transform="scale(0.015625)"/>
     </defs>
     <use xlink:href="#DejaVuSans-42"/>
     <use xlink:href="#DejaVuSans-54" transform="translate(68.603516 0)"/>
     <use xlink:href="#DejaVuSans-4e" transform="translate(129.6875 0)"/>
     <use xlink:href="#DejaVuSans-5f" transform="translate(204.492188 0)"/>
     <use xlink:href="#DejaVuSans-41" transform="translate(254.492188 0)"/>
    </g>
   </g>
   <g id="text_2">
    <!-- GND -->
    <g transform="translate(61.38 304.738281) scale(0.11 -0.11)">
     <defs>
      <path id="DejaVuSans-44" d="M 1259 4147 
L 1259 519 
L 2022 519 
Q 2988 519 3436 956 
Q 3884 1394 3884 2338 
Q 3884 3275 3436 3711 
Q 2988 4147 2022 4147 
L 1259 4147 
z
M 628 4666 
L 1925 4666 
Q 3281 4666 3915 4102 
Q 4550 3538 4550 2338 
Q 4550 1131 3912 565 
Q 3275 0 1925 0 
L 628 0 
L 628 4666 
z
" transform="scale(0.015625)"/>
     </defs>
     <use xlink:href="#DejaVuSans-47"/>
     <use xlink:href="#DejaVuSans-4e" transform="translate(77.490234 0)"/>
     <use xlink:href="#DejaVuSans-44" transform="translate(152.294922 0)"/>
    </g>
   </g>
   <g id="text_3">
    <!-- ESP32-S3 -->
    <g transform="translate(38.409688 243.000313) scale(0.1 -0.1)">
     <defs>
      <path id="DejaVuSans-45" d="M 628 4666 
L 3578 4666 
L 3578 4134 
L 1259 4134 
L 1259 2753 
L 3481 2753 
L 3481 2222 
L 1259 2222 
L 1259 531 
L 3634 531 
L 3634 0 
L 628 0 
L 628 4666 
z
" transform="scale(0.015625)"/>
      <path id="DejaVuSans-53" d="M 3425 4513 
L 3425 3897 
Q 3066 4069 2747 4153 
Q 2428 4238 2131 4238 
Q 1616 4238 1336 4038 
Q 1056 3838 1056 3469 
Q 1056 3159 1242 3001 
Q 1428 2844 1947 2747 
L 2328 2669 
Q 3034 2534 3370 2195 
Q 3706 1856 3706 1288 
Q 3706 609 3251 259 
Q 2797 -91 1919 -91 
Q 1588 -91 1214 -16 
Q 841 59 441 206 
L 441 856 
Q 825 641 1194 531 
Q 1563 422 1919 422 
Q 2459 422 2753 634 
Q 3047 847 3047 1241 
Q 3047 1584 2836 1778 
Q 2625 1972 2144 2069 
L 1759 2144 
Q 1053 2284 737 2584 
Q 422 2884 422 3419 
Q 422 4038 858 4394 
Q 1294 4750 2059 4750 
Q 2388 4750 2728 4690 
Q 3069 4631 3425 4513 
z
" transform="scale(0.015625)"/>
      <path id="DejaVuSans-33" d="M 2597 2516 
Q 3050 2419 3304 2112 
Q 3559 1806 3559 1356 
Q 3559 666 3084 287 
Q 2609 -91 1734 -91 
Q 1441 -91 1130 -33 
Q 819 25 488 141 
L 488 750 
Q 750 597 1062 519 
Q 1375 441 1716 441 
Q 2309 441 2620 675 
Q 2931 909 2931 1356 
Q 2931 1769 2642 2001 
Q 2353 2234 1838 2234 
L 1294 2234 
L 1294 2753 
L 1863 2753 
Q 2328 2753 2575 2939 
Q 2822 3125 2822 3475 
Q 2822 3834 2567 4026 
Q 2313 4219 1838 4219 
Q 1578 4219 1281 4162 
Q 984 4106 628 3988 
L 628 4550 
Q 988 4650 1302 4700 
Q 1616 4750 1894 4750 
Q 2613 4750 3031 4423 
Q 3450 4097 3450 3541 
Q 3450 3153 3228 2886 
Q 3006 2619 2597 2516 
z
" transform="scale(0.015625)"/>
      <path id="DejaVuSans-32" d="M 1228 531 
L 3431 531 
L 3431 0 
L 469 0 
L 469 531 
Q 828 903 1448 1529 
Q 2069 2156 2228 2338 
Q 2531 2678 2651 2914 
Q 2772 3150 2772 3378 
Q 2772 3750 2511 3984 
Q 2250 4219 1831 4219 
Q 1534 4219 1204 4116 
Q 875 4013 500 3803 
L 500 4441 
Q 881 4594 1212 4672 
Q 1544 4750 1819 4750 
Q 2544 4750 2975 4387 
Q 3406 4025 3406 3419 
Q 3406 3131 3298 2873 
Q 3191 2616 2906 2266 
Q 2828 2175 2409 1742 
Q 1991 1309 1228 531 
z
" transform="scale(0.015625)"/>
      <path id="DejaVuSans-2d" d="M 313 2009 
L 1997 2009 
L 1997 1497 
L 313 1497 
L 313 2009 
z
" transform="scale(0.015625)"/>
     </defs>
     <use xlink:href="#DejaVuSans-45"/>
     <use xlink:href="#DejaVuSans-53" transform="translate(63.183594 0)"/>
     <use xlink:href="#DejaVuSans-50" transform="translate(126.660156 0)"/>
     <use xlink:href="#DejaVuSans-33" transform="translate(186.962891 0)"/>
     <use xlink:href="#DejaVuSans-32" transform="translate(250.585938 0)"/>
     <use xlink:href="#DejaVuSans-2d" transform="translate(314.208984 0)"/>
     <use xlink:href="#DejaVuSans-53" transform="translate(350.292969 0)"/>
     <use xlink:href="#DejaVuSans-33" transform="translate(413.769531 0)"/>
    </g>
    <!-- test MCU -->
    <g transform="translate(39.624531 252.678438) scale(0.1 -0.1)">
     <defs>
      <path id="DejaVuSans-74" d="M 1172 4494 
L 1172 3500 
L 2356 3500 
L 2356 3053 
L 1172 3053 
L 1172 1153 
Q 1172 725 1289 603 
Q 1406 481 1766 481 
L 2356 481 
L 2356 0 
L 1766 0 
Q 1100 0 847 248 
Q 594 497 594 1153 
L 594 3053 
L 172 3053 
L 172 3500 
L 594 3500 
L 594 4494 
L 1172 4494 
z
" transform="scale(0.015625)"/>
      <path id="DejaVuSans-65" d="M 3597 1894 
L 3597 1613 
L 953 1613 
Q 991 1019 1311 708 
Q 1631 397 2203 397 
Q 2534 397 2845 478 
Q 3156 559 3463 722 
L 3463 178 
Q 3153 47 2828 -22 
Q 2503 -91 2169 -91 
Q 1331 -91 842 396 
Q 353 884 353 1716 
Q 353 2575 817 3079 
Q 1281 3584 2069 3584 
Q 2775 3584 3186 3129 
Q 3597 2675 3597 1894 
z
M 3022 2063 
Q 3016 2534 2758 2815 
Q 2500 3097 2075 3097 
Q 1594 3097 1305 2825 
Q 1016 2553 972 2059 
L 3022 2063 
z
" transform="scale(0.015625)"/>
      <path id="DejaVuSans-73" d="M 2834 3397 
L 2834 2853 
Q 2591 2978 2328 3040 
Q 2066 3103 1784 3103 
Q 1356 3103 1142 2972 
Q 928 2841 928 2578 
Q 928 2378 1081 2264 
Q 1234 2150 1697 2047 
L 1894 2003 
Q 2506 1872 2764 1633 
Q 3022 1394 3022 966 
Q 3022 478 2636 193 
Q 2250 -91 1575 -91 
Q 1294 -91 989 -36 
Q 684 19 347 128 
L 347 722 
Q 666 556 975 473 
Q 1284 391 1588 391 
Q 1994 391 2212 530 
Q 2431 669 2431 922 
Q 2431 1156 2273 1281 
Q 2116 1406 1581 1522 
L 1381 1569 
Q 847 1681 609 1914 
Q 372 2147 372 2553 
Q 372 3047 722 3315 
Q 1072 3584 1716 3584 
Q 2034 3584 2315 3537 
Q 2597 3491 2834 3397 
z
" transform="scale(0.015625)"/>
      <path id="DejaVuSans-20" transform="scale(0.015625)"/>
      <path id="DejaVuSans-4d" d="M 628 4666 
L 1569 4666 
L 2759 1491 
L 3956 4666 
L 4897 4666 
L 4897 0 
L 4281 0 
L 4281 4097 
L 3078 897 
L 2444 897 
L 1241 4097 
L 1241 0 
L 628 0 
L 628 4666 
z
" transform="scale(0.015625)"/>
      <path id="DejaVuSans-43" d="M 4122 4306 
L 4122 3641 
Q 3803 3938 3442 4084 
Q 3081 4231 2675 4231 
Q 1875 4231 1450 3742 
Q 1025 3253 1025 2328 
Q 1025 1406 1450 917 
Q 1875 428 2675 428 
Q 3081 428 3442 575 
Q 3803 722 4122 1019 
L 4122 359 
Q 3791 134 3420 21 
Q 3050 -91 2638 -91 
Q 1578 -91 968 557 
Q 359 1206 359 2328 
Q 359 3453 968 4101 
Q 1578 4750 2638 4750 
Q 3056 4750 3426 4639 
Q 3797 4528 4122 4306 
z
" transform="scale(0.015625)"/>
      <path id="DejaVuSans-55" d="M 556 4666 
L 1191 4666 
L 1191 1831 
Q 1191 1081 1462 751 
Q 1734 422 2344 422 
Q 2950 422 3222 751 
Q 3494 1081 3494 1831 
L 3494 4666 
L 4128 4666 
L 4128 1753 
Q 4128 841 3676 375 
Q 3225 -91 2344 -91 
Q 1459 -91 1007 375 
Q 556 841 556 1753 
L 556 4666 
z
" transform="scale(0.015625)"/>
     </defs>
     <use xlink:href="#DejaVuSans-74"/>
     <use xlink:href="#DejaVuSans-65" transform="translate(39.208984 0)"/>
     <use xlink:href="#DejaVuSans-73" transform="translate(100.732422 0)"/>
     <use xlink:href="#DejaVuSans-74" transform="translate(152.832031 0)"/>
     <use xlink:href="#DejaVuSans-20" transform="translate(192.041016 0)"/>
     <use xlink:href="#DejaVuSans-4d" transform="translate(223.828125 0)"/>
     <use xlink:href="#DejaVuSans-43" transform="translate(310.107422 0)"/>
     <use xlink:href="#DejaVuSans-55" transform="translate(379.931641 0)"/>
    </g>
   </g>
   <g id="text_4">
    <!-- IN1 (1) -->
    <g transform="translate(180.42875 189.692344) scale(0.11 -0.11)">
     <defs>
      <path id="DejaVuSans-31" d="M 794 531 
L 1825 531 
L 1825 4091 
L 703 3866 
L 703 4441 
L 1819 4666 
L 2450 4666 
L 2450 531 
L 3481 531 
L 3481 0 
L 794 0 
L 794 531 
z
" transform="scale(0.015625)"/>
      <path id="DejaVuSans-28" d="M 1984 4856 
Q 1566 4138 1362 3434 
Q 1159 2731 1159 2009 
Q 1159 1288 1364 580 
Q 1569 -128 1984 -844 
L 1484 -844 
Q 1016 -109 783 600 
Q 550 1309 550 2009 
Q 550 2706 781 3412 
Q 1013 4119 1484 4856 
L 1984 4856 
z
" transform="scale(0.015625)"/>
      <path id="DejaVuSans-29" d="M 513 4856 
L 1013 4856 
Q 1481 4119 1714 3412 
Q 1947 2706 1947 2009 
Q 1947 1309 1714 600 
Q 1481 -109 1013 -844 
L 513 -844 
Q 928 -128 1133 580 
Q 1338 1288 1338 2009 
Q 1338 2731 1133 3434 
Q 928 4138 513 4856 
z
" transform="scale(0.015625)"/>
     </defs>
     <use xlink:href="#DejaVuSans-49"/>
     <use xlink:href="#DejaVuSans-4e" transform="translate(29.492188 0)"/>
     <use xlink:href="#DejaVuSans-31" transform="translate(104.296875 0)"/>
     <use xlink:href="#DejaVuSans-20" transform="translate(167.919922 0)"/>
     <use xlink:href="#DejaVuSans-28" transform="translate(199.707031 0)"/>
     <use xlink:href="#DejaVuSans-31" transform="translate(238.720703 0)"/>
     <use xlink:href="#DejaVuSans-29" transform="translate(302.34375 0)"/>
    </g>
   </g>
   <g id="text_5">
    <!-- OUT1 (18) -->
    <g transform="translate(349.38 189.692344) scale(0.11 -0.11)">
     <defs>
      <path id="DejaVuSans-38" d="M 2034 2216 
Q 1584 2216 1326 1975 
Q 1069 1734 1069 1313 
Q 1069 891 1326 650 
Q 1584 409 2034 409 
Q 2484 409 2743 651 
Q 3003 894 3003 1313 
Q 3003 1734 2745 1975 
Q 2488 2216 2034 2216 
z
M 1403 2484 
Q 997 2584 770 2862 
Q 544 3141 544 3541 
Q 544 4100 942 4425 
Q 1341 4750 2034 4750 
Q 2731 4750 3128 4425 
Q 3525 4100 3525 3541 
Q 3525 3141 3298 2862 
Q 3072 2584 2669 2484 
Q 3125 2378 3379 2068 
Q 3634 1759 3634 1313 
Q 3634 634 3220 271 
Q 2806 -91 2034 -91 
Q 1263 -91 848 271 
Q 434 634 434 1313 
Q 434 1759 690 2068 
Q 947 2378 1403 2484 
z
M 1172 3481 
Q 1172 3119 1398 2916 
Q 1625 2713 2034 2713 
Q 2441 2713 2670 2916 
Q 2900 3119 2900 3481 
Q 2900 3844 2670 4047 
Q 2441 4250 2034 4250 
Q 1625 4250 1398 4047 
Q 1172 3844 1172 3481 
z
" transform="scale(0.015625)"/>
     </defs>
     <use xlink:href="#DejaVuSans-4f"/>
     <use xlink:href="#DejaVuSans-55" transform="translate(78.710938 0)"/>
     <use xlink:href="#DejaVuSans-54" transform="translate(151.904297 0)"/>
     <use xlink:href="#DejaVuSans-31" transform="translate(212.988281 0)"/>
     <use xlink:href="#DejaVuSans-20" transform="translate(276.611328 0)"/>
     <use xlink:href="#DejaVuSans-28" transform="translate(308.398438 0)"/>
     <use xlink:href="#DejaVuSans-31" transform="translate(347.412109 0)"/>
     <use xlink:href="#DejaVuSans-38" transform="translate(411.035156 0)"/>
     <use xlink:href="#DejaVuSans-29" transform="translate(474.658203 0)"/>
    </g>
   </g>
   <g id="text_6">
    <!-- COM (10) -->
    <g transform="translate(286.38 135.692344) scale(0.11 -0.11)">
     <defs>
      <path id="DejaVuSans-30" d="M 2034 4250 
Q 1547 4250 1301 3770 
Q 1056 3291 1056 2328 
Q 1056 1369 1301 889 
Q 1547 409 2034 409 
Q 2525 409 2770 889 
Q 3016 1369 3016 2328 
Q 3016 3291 2770 3770 
Q 2525 4250 2034 4250 
z
M 2034 4750 
Q 2819 4750 3233 4129 
Q 3647 3509 3647 2328 
Q 3647 1150 3233 529 
Q 2819 -91 2034 -91 
Q 1250 -91 836 529 
Q 422 1150 422 2328 
Q 422 3509 836 4129 
Q 1250 4750 2034 4750 
z
" transform="scale(0.015625)"/>
     </defs>
     <use xlink:href="#DejaVuSans-43"/>
     <use xlink:href="#DejaVuSans-4f" transform="translate(69.824219 0)"/>
     <use xlink:href="#DejaVuSans-4d" transform="translate(148.535156 0)"/>
     <use xlink:href="#DejaVuSans-20" transform="translate(234.814453 0)"/>
     <use xlink:href="#DejaVuSans-28" transform="translate(266.601562 0)"/>
     <use xlink:href="#DejaVuSans-31" transform="translate(305.615234 0)"/>
     <use xlink:href="#DejaVuSans-30" transform="translate(369.238281 0)"/>
     <use xlink:href="#DejaVuSans-29" transform="translate(432.861328 0)"/>
    </g>
   </g>
   <g id="text_7">
    <!-- GND (9) -->
    <g transform="translate(286.38 259.738281) scale(0.11 -0.11)">
     <defs>
      <path id="DejaVuSans-39" d="M 703 97 
L 703 672 
Q 941 559 1184 500 
Q 1428 441 1663 441 
Q 2288 441 2617 861 
Q 2947 1281 2994 2138 
Q 2813 1869 2534 1725 
Q 2256 1581 1919 1581 
Q 1219 1581 811 2004 
Q 403 2428 403 3163 
Q 403 3881 828 4315 
Q 1253 4750 1959 4750 
Q 2769 4750 3195 4129 
Q 3622 3509 3622 2328 
Q 3622 1225 3098 567 
Q 2575 -91 1691 -91 
Q 1453 -91 1209 -44 
Q 966 3 703 97 
z
M 1959 2075 
Q 2384 2075 2632 2365 
Q 2881 2656 2881 3163 
Q 2881 3666 2632 3958 
Q 2384 4250 1959 4250 
Q 1534 4250 1286 3958 
Q 1038 3666 1038 3163 
Q 1038 2656 1286 2365 
Q 1534 2075 1959 2075 
z
" transform="scale(0.015625)"/>
     </defs>
     <use xlink:href="#DejaVuSans-47"/>
     <use xlink:href="#DejaVuSans-4e" transform="translate(77.490234 0)"/>
     <use xlink:href="#DejaVuSans-44" transform="translate(152.294922 0)"/>
     <use xlink:href="#DejaVuSans-20" transform="translate(229.296875 0)"/>
     <use xlink:href="#DejaVuSans-28" transform="translate(261.083984 0)"/>
     <use xlink:href="#DejaVuSans-39" transform="translate(300.097656 0)"/>
     <use xlink:href="#DejaVuSans-29" transform="translate(363.720703 0)"/>
    </g>
   </g>
   <g id="text_8">
    <!-- ULN2803A -->
    <g transform="translate(260.94875 184.16125) scale(0.1 -0.1)">
     <defs>
      <path id="DejaVuSans-4c" d="M 628 4666 
L 1259 4666 
L 1259 531 
L 3531 531 
L 3531 0 
L 628 0 
L 628 4666 
z
" transform="scale(0.015625)"/>
     </defs>
     <use xlink:href="#DejaVuSans-55"/>
     <use xlink:href="#DejaVuSans-4c" transform="translate(73.193359 0)"/>
     <use xlink:href="#DejaVuSans-4e" transform="translate(128.90625 0)"/>
     <use xlink:href="#DejaVuSans-32" transform="translate(203.710938 0)"/>
     <use xlink:href="#DejaVuSans-38" transform="translate(267.333984 0)"/>
     <use xlink:href="#DejaVuSans-30" transform="translate(330.957031 0)"/>
     <use xlink:href="#DejaVuSans-33" transform="translate(394.580078 0)"/>
     <use xlink:href="#DejaVuSans-41" transform="translate(458.203125 0)"/>
    </g>
    <!-- (1 ch shown, -->
    <g transform="translate(255.372187 193.839375) scale(0.1 -0.1)">
     <defs>
      <path id="DejaVuSans-63" d="M 3122 3366 
L 3122 2828 
Q 2878 2963 2633 3030 
Q 2388 3097 2138 3097 
Q 1578 3097 1268 2742 
Q 959 2388 959 1747 
Q 959 1106 1268 751 
Q 1578 397 2138 397 
Q 2388 397 2633 464 
Q 2878 531 3122 666 
L 3122 134 
Q 2881 22 2623 -34 
Q 2366 -91 2075 -91 
Q 1284 -91 818 406 
Q 353 903 353 1747 
Q 353 2603 823 3093 
Q 1294 3584 2113 3584 
Q 2378 3584 2631 3529 
Q 2884 3475 3122 3366 
z
" transform="scale(0.015625)"/>
      <path id="DejaVuSans-68" d="M 3513 2113 
L 3513 0 
L 2938 0 
L 2938 2094 
Q 2938 2591 2744 2837 
Q 2550 3084 2163 3084 
Q 1697 3084 1428 2787 
Q 1159 2491 1159 1978 
L 1159 0 
L 581 0 
L 581 4863 
L 1159 4863 
L 1159 2956 
Q 1366 3272 1645 3428 
Q 1925 3584 2291 3584 
Q 2894 3584 3203 3211 
Q 3513 2838 3513 2113 
z
" transform="scale(0.015625)"/>
      <path id="DejaVuSans-6f" d="M 1959 3097 
Q 1497 3097 1228 2736 
Q 959 2375 959 1747 
Q 959 1119 1226 758 
Q 1494 397 1959 397 
Q 2419 397 2687 759 
Q 2956 1122 2956 1747 
Q 2956 2369 2687 2733 
Q 2419 3097 1959 3097 
z
M 1959 3584 
Q 2709 3584 3137 3096 
Q 3566 2609 3566 1747 
Q 3566 888 3137 398 
Q 2709 -91 1959 -91 
Q 1206 -91 779 398 
Q 353 888 353 1747 
Q 353 2609 779 3096 
Q 1206 3584 1959 3584 
z
" transform="scale(0.015625)"/>
      <path id="DejaVuSans-77" d="M 269 3500 
L 844 3500 
L 1563 769 
L 2278 3500 
L 2956 3500 
L 3675 769 
L 4391 3500 
L 4966 3500 
L 4050 0 
L 3372 0 
L 2619 2869 
L 1863 0 
L 1184 0 
L 269 3500 
z
" transform="scale(0.015625)"/>
      <path id="DejaVuSans-6e" d="M 3513 2113 
L 3513 0 
L 2938 0 
L 2938 2094 
Q 2938 2591 2744 2837 
Q 2550 3084 2163 3084 
Q 1697 3084 1428 2787 
Q 1159 2491 1159 1978 
L 1159 0 
L 581 0 
L 581 3500 
L 1159 3500 
L 1159 2956 
Q 1366 3272 1645 3428 
Q 1925 3584 2291 3584 
Q 2894 3584 3203 3211 
Q 3513 2838 3513 2113 
z
" transform="scale(0.015625)"/>
      <path id="DejaVuSans-2c" d="M 750 794 
L 1409 794 
L 1409 256 
L 897 -744 
L 494 -744 
L 750 256 
L 750 794 
z
" transform="scale(0.015625)"/>
     </defs>
     <use xlink:href="#DejaVuSans-28"/>
     <use xlink:href="#DejaVuSans-31" transform="translate(39.013672 0)"/>
     <use xlink:href="#DejaVuSans-20" transform="translate(102.636719 0)"/>
     <use xlink:href="#DejaVuSans-63" transform="translate(134.423828 0)"/>
     <use xlink:href="#DejaVuSans-68" transform="translate(189.404297 0)"/>
     <use xlink:href="#DejaVuSans-20" transform="translate(252.783203 0)"/>
     <use xlink:href="#DejaVuSans-73" transform="translate(284.570312 0)"/>
     <use xlink:href="#DejaVuSans-68" transform="translate(336.669922 0)"/>
     <use xlink:href="#DejaVuSans-6f" transform="translate(400.048828 0)"/>
     <use xlink:href="#DejaVuSans-77" transform="translate(461.230469 0)"/>
     <use xlink:href="#DejaVuSans-6e" transform="translate(543.017578 0)"/>
     <use xlink:href="#DejaVuSans-2c" transform="translate(606.396484 0)"/>
    </g>
    <!-- 3 more identical) -->
    <g transform="translate(244.660469 203.5175) scale(0.1 -0.1)">
     <defs>
      <path id="DejaVuSans-6d" d="M 3328 2828 
Q 3544 3216 3844 3400 
Q 4144 3584 4550 3584 
Q 5097 3584 5394 3201 
Q 5691 2819 5691 2113 
L 5691 0 
L 5113 0 
L 5113 2094 
Q 5113 2597 4934 2840 
Q 4756 3084 4391 3084 
Q 3944 3084 3684 2787 
Q 3425 2491 3425 1978 
L 3425 0 
L 2847 0 
L 2847 2094 
Q 2847 2600 2669 2842 
Q 2491 3084 2119 3084 
Q 1678 3084 1418 2786 
Q 1159 2488 1159 1978 
L 1159 0 
L 581 0 
L 581 3500 
L 1159 3500 
L 1159 2956 
Q 1356 3278 1631 3431 
Q 1906 3584 2284 3584 
Q 2666 3584 2933 3390 
Q 3200 3197 3328 2828 
z
" transform="scale(0.015625)"/>
      <path id="DejaVuSans-72" d="M 2631 2963 
Q 2534 3019 2420 3045 
Q 2306 3072 2169 3072 
Q 1681 3072 1420 2755 
Q 1159 2438 1159 1844 
L 1159 0 
L 581 0 
L 581 3500 
L 1159 3500 
L 1159 2956 
Q 1341 3275 1631 3429 
Q 1922 3584 2338 3584 
Q 2397 3584 2469 3576 
Q 2541 3569 2628 3553 
L 2631 2963 
z
" transform="scale(0.015625)"/>
      <path id="DejaVuSans-69" d="M 603 3500 
L 1178 3500 
L 1178 0 
L 603 0 
L 603 3500 
z
M 603 4863 
L 1178 4863 
L 1178 4134 
L 603 4134 
L 603 4863 
z
" transform="scale(0.015625)"/>
      <path id="DejaVuSans-64" d="M 2906 2969 
L 2906 4863 
L 3481 4863 
L 3481 0 
L 2906 0 
L 2906 525 
Q 2725 213 2448 61 
Q 2172 -91 1784 -91 
Q 1150 -91 751 415 
Q 353 922 353 1747 
Q 353 2572 751 3078 
Q 1150 3584 1784 3584 
Q 2172 3584 2448 3432 
Q 2725 3281 2906 2969 
z
M 947 1747 
Q 947 1113 1208 752 
Q 1469 391 1925 391 
Q 2381 391 2643 752 
Q 2906 1113 2906 1747 
Q 2906 2381 2643 2742 
Q 2381 3103 1925 3103 
Q 1469 3103 1208 2742 
Q 947 2381 947 1747 
z
" transform="scale(0.015625)"/>
      <path id="DejaVuSans-61" d="M 2194 1759 
Q 1497 1759 1228 1600 
Q 959 1441 959 1056 
Q 959 750 1161 570 
Q 1363 391 1709 391 
Q 2188 391 2477 730 
Q 2766 1069 2766 1631 
L 2766 1759 
L 2194 1759 
z
M 3341 1997 
L 3341 0 
L 2766 0 
L 2766 531 
Q 2569 213 2275 61 
Q 1981 -91 1556 -91 
Q 1019 -91 701 211 
Q 384 513 384 1019 
Q 384 1609 779 1909 
Q 1175 2209 1959 2209 
L 2766 2209 
L 2766 2266 
Q 2766 2663 2505 2880 
Q 2244 3097 1772 3097 
Q 1472 3097 1187 3025 
Q 903 2953 641 2809 
L 641 3341 
Q 956 3463 1253 3523 
Q 1550 3584 1831 3584 
Q 2591 3584 2966 3190 
Q 3341 2797 3341 1997 
z
" transform="scale(0.015625)"/>
      <path id="DejaVuSans-6c" d="M 603 4863 
L 1178 4863 
L 1178 0 
L 603 0 
L 603 4863 
z
" transform="scale(0.015625)"/>
     </defs>
     <use xlink:href="#DejaVuSans-33"/>
     <use xlink:href="#DejaVuSans-20" transform="translate(63.623047 0)"/>
     <use xlink:href="#DejaVuSans-6d" transform="translate(95.410156 0)"/>
     <use xlink:href="#DejaVuSans-6f" transform="translate(192.822266 0)"/>
     <use xlink:href="#DejaVuSans-72" transform="translate(254.003906 0)"/>
     <use xlink:href="#DejaVuSans-65" transform="translate(292.867188 0)"/>
     <use xlink:href="#DejaVuSans-20" transform="translate(354.390625 0)"/>
     <use xlink:href="#DejaVuSans-69" transform="translate(386.177734 0)"/>
     <use xlink:href="#DejaVuSans-64" transform="translate(413.960938 0)"/>
     <use xlink:href="#DejaVuSans-65" transform="translate(477.4375 0)"/>
     <use xlink:href="#DejaVuSans-6e" transform="translate(538.960938 0)"/>
     <use xlink:href="#DejaVuSans-74" transform="translate(602.339844 0)"/>
     <use xlink:href="#DejaVuSans-69" transform="translate(641.548828 0)"/>
     <use xlink:href="#DejaVuSans-63" transform="translate(669.332031 0)"/>
     <use xlink:href="#DejaVuSans-61" transform="translate(724.3125 0)"/>
     <use xlink:href="#DejaVuSans-6c" transform="translate(785.591797 0)"/>
     <use xlink:href="#DejaVuSans-29" transform="translate(813.375 0)"/>
    </g>
   </g>
   <g id="patch_7">
    <path d="M 560.699978 149.32 
C 561.845655 149.32 562.944563 148.864818 563.754679 148.054701 
C 564.564795 147.244585 565.019978 146.145677 565.019978 145 
C 565.019978 143.854323 564.564795 142.755415 563.754679 141.945299 
C 562.944563 141.135182 561.845655 140.68 560.699978 140.68 
C 559.5543 140.68 558.455393 141.135182 557.645276 141.945299 
C 556.83516 142.755415 556.379978 143.854323 556.379978 145 
C 556.379978 146.145677 556.83516 147.244585 557.645276 148.054701 
C 558.455393 148.864818 559.5543 149.32 560.699978 149.32 
z
" clip-path="url(#pf750c6f2de)" style="fill: #ffffff; stroke: #000000; stroke-width: 2; stroke-linejoin: miter"/>
   </g>
   <g id="patch_8">
    <path d="M 560.699978 176.68 
C 561.845655 176.68 562.944563 176.224818 563.754679 175.414701 
C 564.564795 174.604585 565.019978 173.505677 565.019978 172.36 
C 565.019978 171.214323 564.564795 170.115415 563.754679 169.305299 
C 562.944563 168.495182 561.845655 168.04 560.699978 168.04 
C 559.5543 168.04 558.455393 168.495182 557.645276 169.305299 
C 556.83516 170.115415 556.379978 171.214323 556.379978 172.36 
C 556.379978 173.505677 556.83516 174.604585 557.645276 175.414701 
C 558.455393 176.224818 559.5543 176.68 560.699978 176.68 
z
" clip-path="url(#pf750c6f2de)" style="fill: #ffffff; stroke: #000000; stroke-width: 2; stroke-linejoin: miter"/>
   </g>
   <g id="text_9">
    <!-- +5 V -->
    <g transform="translate(271.299531 12.600313) scale(0.1 -0.1)">
     <defs>
      <path id="DejaVuSans-2b" d="M 2944 4013 
L 2944 2272 
L 4684 2272 
L 4684 1741 
L 2944 1741 
L 2944 0 
L 2419 0 
L 2419 1741 
L 678 1741 
L 678 2272 
L 2419 2272 
L 2419 4013 
L 2944 4013 
z
" transform="scale(0.015625)"/>
      <path id="DejaVuSans-35" d="M 691 4666 
L 3169 4666 
L 3169 4134 
L 1269 4134 
L 1269 2991 
Q 1406 3038 1543 3061 
Q 1681 3084 1819 3084 
Q 2600 3084 3056 2656 
Q 3513 2228 3513 1497 
Q 3513 744 3044 326 
Q 2575 -91 1722 -91 
Q 1428 -91 1123 -41 
Q 819 9 494 109 
L 494 744 
Q 775 591 1075 516 
Q 1375 441 1709 441 
Q 2250 441 2565 725 
Q 2881 1009 2881 1497 
Q 2881 1984 2565 2268 
Q 2250 2553 1709 2553 
Q 1456 2553 1204 2497 
Q 953 2441 691 2322 
L 691 4666 
z
" transform="scale(0.015625)"/>
      <path id="DejaVuSans-56" d="M 1831 0 
L 50 4666 
L 709 4666 
L 2188 738 
L 3669 4666 
L 4325 4666 
L 2547 0 
L 1831 0 
z
" transform="scale(0.015625)"/>
     </defs>
     <use xlink:href="#DejaVuSans-2b"/>
     <use xlink:href="#DejaVuSans-35" transform="translate(83.789062 0)"/>
     <use xlink:href="#DejaVuSans-20" transform="translate(147.412109 0)"/>
     <use xlink:href="#DejaVuSans-56" transform="translate(179.199219 0)"/>
    </g>
   </g>
   <g id="text_10">
    <!-- 100 µF -->
    <g transform="translate(387.990156 17.322188) scale(0.1 -0.1)">
     <defs>
      <path id="DejaVuSans-b5" d="M 544 -1331 
L 544 3500 
L 1119 3500 
L 1119 1325 
Q 1119 872 1334 640 
Q 1550 409 1972 409 
Q 2434 409 2667 671 
Q 2900 934 2900 1459 
L 2900 3500 
L 3475 3500 
L 3475 806 
Q 3475 619 3529 530 
Q 3584 441 3700 441 
Q 3728 441 3778 458 
Q 3828 475 3916 513 
L 3916 50 
Q 3788 -22 3673 -56 
Q 3559 -91 3450 -91 
Q 3234 -91 3106 31 
Q 2978 153 2931 403 
Q 2775 156 2548 32 
Q 2322 -91 2016 -91 
Q 1697 -91 1473 31 
Q 1250 153 1119 397 
L 1119 -1331 
L 544 -1331 
z
" transform="scale(0.015625)"/>
      <path id="DejaVuSans-46" d="M 628 4666 
L 3309 4666 
L 3309 4134 
L 1259 4134 
L 1259 2759 
L 3109 2759 
L 3109 2228 
L 1259 2228 
L 1259 0 
L 628 0 
L 628 4666 
z
" transform="scale(0.015625)"/>
     </defs>
     <use xlink:href="#DejaVuSans-31"/>
     <use xlink:href="#DejaVuSans-30" transform="translate(63.623047 0)"/>
     <use xlink:href="#DejaVuSans-30" transform="translate(127.246094 0)"/>
     <use xlink:href="#DejaVuSans-20" transform="translate(190.869141 0)"/>
     <use xlink:href="#DejaVuSans-b5" transform="translate(222.65625 0)"/>
     <use xlink:href="#DejaVuSans-46" transform="translate(286.279297 0)"/>
    </g>
    <!-- + 100 nF -->
    <g transform="translate(382.22375 27.000313) scale(0.1 -0.1)">
     <use xlink:href="#DejaVuSans-2b"/>
     <use xlink:href="#DejaVuSans-20" transform="translate(83.789062 0)"/>
     <use xlink:href="#DejaVuSans-31" transform="translate(115.576172 0)"/>
     <use xlink:href="#DejaVuSans-30" transform="translate(179.199219 0)"/>
     <use xlink:href="#DejaVuSans-30" transform="translate(242.822266 0)"/>
     <use xlink:href="#DejaVuSans-20" transform="translate(306.445312 0)"/>
     <use xlink:href="#DejaVuSans-6e" transform="translate(338.232422 0)"/>
     <use xlink:href="#DejaVuSans-46" transform="translate(401.611328 0)"/>
    </g>
   </g>
   <g id="text_11">
    <!-- rig GND -->
    <g transform="translate(465.554665 136.959375) scale(0.1 -0.1)">
     <defs>
      <path id="DejaVuSans-67" d="M 2906 1791 
Q 2906 2416 2648 2759 
Q 2391 3103 1925 3103 
Q 1463 3103 1205 2759 
Q 947 2416 947 1791 
Q 947 1169 1205 825 
Q 1463 481 1925 481 
Q 2391 481 2648 825 
Q 2906 1169 2906 1791 
z
M 3481 434 
Q 3481 -459 3084 -895 
Q 2688 -1331 1869 -1331 
Q 1566 -1331 1297 -1286 
Q 1028 -1241 775 -1147 
L 775 -588 
Q 1028 -725 1275 -790 
Q 1522 -856 1778 -856 
Q 2344 -856 2625 -561 
Q 2906 -266 2906 331 
L 2906 616 
Q 2728 306 2450 153 
Q 2172 0 1784 0 
Q 1141 0 747 490 
Q 353 981 353 1791 
Q 353 2603 747 3093 
Q 1141 3584 1784 3584 
Q 2172 3584 2450 3431 
Q 2728 3278 2906 2969 
L 2906 3500 
L 3481 3500 
L 3481 434 
z
" transform="scale(0.015625)"/>
     </defs>
     <use xlink:href="#DejaVuSans-72"/>
     <use xlink:href="#DejaVuSans-69" transform="translate(41.113281 0)"/>
     <use xlink:href="#DejaVuSans-67" transform="translate(68.896484 0)"/>
     <use xlink:href="#DejaVuSans-20" transform="translate(132.373047 0)"/>
     <use xlink:href="#DejaVuSans-47" transform="translate(164.160156 0)"/>
     <use xlink:href="#DejaVuSans-4e" transform="translate(241.650391 0)"/>
     <use xlink:href="#DejaVuSans-44" transform="translate(316.455078 0)"/>
    </g>
   </g>
   <g id="text_12">
    <!-- RY1 — 5 V SPST-NO reed -->
    <g transform="translate(511.830781 315.000313) scale(0.1 -0.1)">
     <defs>
      <path id="DejaVuSans-52" d="M 2841 2188 
Q 3044 2119 3236 1894 
Q 3428 1669 3622 1275 
L 4263 0 
L 3584 0 
L 2988 1197 
Q 2756 1666 2539 1819 
Q 2322 1972 1947 1972 
L 1259 1972 
L 1259 0 
L 628 0 
L 628 4666 
L 2053 4666 
Q 2853 4666 3247 4331 
Q 3641 3997 3641 3322 
Q 3641 2881 3436 2590 
Q 3231 2300 2841 2188 
z
M 1259 4147 
L 1259 2491 
L 2053 2491 
Q 2509 2491 2742 2702 
Q 2975 2913 2975 3322 
Q 2975 3731 2742 3939 
Q 2509 4147 2053 4147 
L 1259 4147 
z
" transform="scale(0.015625)"/>
      <path id="DejaVuSans-59" d="M -13 4666 
L 666 4666 
L 1959 2747 
L 3244 4666 
L 3922 4666 
L 2272 2222 
L 2272 0 
L 1638 0 
L 1638 2222 
L -13 4666 
z
" transform="scale(0.015625)"/>
      <path id="DejaVuSans-2014" d="M 313 1978 
L 6088 1978 
L 6088 1528 
L 313 1528 
L 313 1978 
z
" transform="scale(0.015625)"/>
     </defs>
     <use xlink:href="#DejaVuSans-52"/>
     <use xlink:href="#DejaVuSans-59" transform="translate(63.107422 0)"/>
     <use xlink:href="#DejaVuSans-31" transform="translate(124.191406 0)"/>
     <use xlink:href="#DejaVuSans-20" transform="translate(187.814453 0)"/>
     <use xlink:href="#DejaVuSans-2014" transform="translate(219.601562 0)"/>
     <use xlink:href="#DejaVuSans-20" transform="translate(319.601562 0)"/>
     <use xlink:href="#DejaVuSans-35" transform="translate(351.388672 0)"/>
     <use xlink:href="#DejaVuSans-20" transform="translate(415.011719 0)"/>
     <use xlink:href="#DejaVuSans-56" transform="translate(446.798828 0)"/>
     <use xlink:href="#DejaVuSans-20" transform="translate(515.207031 0)"/>
     <use xlink:href="#DejaVuSans-53" transform="translate(546.994141 0)"/>
     <use xlink:href="#DejaVuSans-50" transform="translate(610.470703 0)"/>
     <use xlink:href="#DejaVuSans-53" transform="translate(670.773438 0)"/>
     <use xlink:href="#DejaVuSans-54" transform="translate(734.25 0)"/>
     <use xlink:href="#DejaVuSans-2d" transform="translate(786.208984 0)"/>
     <use xlink:href="#DejaVuSans-4e" transform="translate(822.292969 0)"/>
     <use xlink:href="#DejaVuSans-4f" transform="translate(897.097656 0)"/>
     <use xlink:href="#DejaVuSans-20" transform="translate(975.808594 0)"/>
     <use xlink:href="#DejaVuSans-72" transform="translate(1007.595703 0)"/>
     <use xlink:href="#DejaVuSans-65" transform="translate(1046.458984 0)"/>
     <use xlink:href="#DejaVuSans-65" transform="translate(1107.982422 0)"/>
     <use xlink:href="#DejaVuSans-64" transform="translate(1169.505859 0)"/>
    </g>
    <!-- (~10–20 mA coil) -->
    <g transform="translate(530.108125 324.678438) scale(0.1 -0.1)">
     <defs>
      <path id="DejaVuSans-7e" d="M 4684 2553 
L 4684 1997 
Q 4356 1750 4076 1644 
Q 3797 1538 3494 1538 
Q 3150 1538 2694 1722 
Q 2659 1734 2644 1741 
Q 2622 1750 2575 1766 
Q 2091 1959 1797 1959 
Q 1522 1959 1253 1839 
Q 984 1719 678 1459 
L 678 2016 
Q 1006 2263 1286 2370 
Q 1566 2478 1869 2478 
Q 2213 2478 2672 2291 
Q 2703 2278 2719 2272 
Q 2744 2263 2788 2247 
Q 3272 2053 3566 2053 
Q 3834 2053 4098 2172 
Q 4363 2291 4684 2553 
z
" transform="scale(0.015625)"/>
      <path id="DejaVuSans-2013" d="M 313 1978 
L 2888 1978 
L 2888 1528 
L 313 1528 
L 313 1978 
z
" transform="scale(0.015625)"/>
     </defs>
     <use xlink:href="#DejaVuSans-28"/>
     <use xlink:href="#DejaVuSans-7e" transform="translate(39.013672 0)"/>
     <use xlink:href="#DejaVuSans-31" transform="translate(122.802734 0)"/>
     <use xlink:href="#DejaVuSans-30" transform="translate(186.425781 0)"/>
     <use xlink:href="#DejaVuSans-2013" transform="translate(250.048828 0)"/>
     <use xlink:href="#DejaVuSans-32" transform="translate(300.048828 0)"/>
     <use xlink:href="#DejaVuSans-30" transform="translate(363.671875 0)"/>
     <use xlink:href="#DejaVuSans-20" transform="translate(427.294922 0)"/>
     <use xlink:href="#DejaVuSans-6d" transform="translate(459.082031 0)"/>
     <use xlink:href="#DejaVuSans-41" transform="translate(556.494141 0)"/>
     <use xlink:href="#DejaVuSans-20" transform="translate(624.902344 0)"/>
     <use xlink:href="#DejaVuSans-63" transform="translate(656.689453 0)"/>
     <use xlink:href="#DejaVuSans-6f" transform="translate(711.669922 0)"/>
     <use xlink:href="#DejaVuSans-69" transform="translate(772.851562 0)"/>
     <use xlink:href="#DejaVuSans-6c" transform="translate(800.634766 0)"/>
     <use xlink:href="#DejaVuSans-29" transform="translate(828.417969 0)"/>
    </g>
   </g>
   <g id="text_13">
    <!-- Relay channel — one of 4 (BTN_A shown; BTN_B, BTN_SWITCH, RESET wire identically; RESET routes to DUT EN, not a button line) -->
    <g transform="translate(25.01125 55.522188) scale(0.1 -0.1)">
     <defs>
      <path id="DejaVuSans-79" d="M 2059 -325 
Q 1816 -950 1584 -1140 
Q 1353 -1331 966 -1331 
L 506 -1331 
L 506 -850 
L 844 -850 
Q 1081 -850 1212 -737 
Q 1344 -625 1503 -206 
L 1606 56 
L 191 3500 
L 800 3500 
L 1894 763 
L 2988 3500 
L 3597 3500 
L 2059 -325 
z
" transform="scale(0.015625)"/>
      <path id="DejaVuSans-66" d="M 2375 4863 
L 2375 4384 
L 1825 4384 
Q 1516 4384 1395 4259 
Q 1275 4134 1275 3809 
L 1275 3500 
L 2222 3500 
L 2222 3053 
L 1275 3053 
L 1275 0 
L 697 0 
L 697 3053 
L 147 3053 
L 147 3500 
L 697 3500 
L 697 3744 
Q 697 4328 969 4595 
Q 1241 4863 1831 4863 
L 2375 4863 
z
" transform="scale(0.015625)"/>
      <path id="DejaVuSans-34" d="M 2419 4116 
L 825 1625 
L 2419 1625 
L 2419 4116 
z
M 2253 4666 
L 3047 4666 
L 3047 1625 
L 3713 1625 
L 3713 1100 
L 3047 1100 
L 3047 0 
L 2419 0 
L 2419 1100 
L 313 1100 
L 313 1709 
L 2253 4666 
z
" transform="scale(0.015625)"/>
      <path id="DejaVuSans-3b" d="M 750 3309 
L 1409 3309 
L 1409 2516 
L 750 2516 
L 750 3309 
z
M 750 794 
L 1409 794 
L 1409 256 
L 897 -744 
L 494 -744 
L 750 256 
L 750 794 
z
" transform="scale(0.015625)"/>
      <path id="DejaVuSans-57" d="M 213 4666 
L 850 4666 
L 1831 722 
L 2809 4666 
L 3519 4666 
L 4500 722 
L 5478 4666 
L 6119 4666 
L 4947 0 
L 4153 0 
L 3169 4050 
L 2175 0 
L 1381 0 
L 213 4666 
z
" transform="scale(0.015625)"/>
      <path id="DejaVuSans-48" d="M 628 4666 
L 1259 4666 
L 1259 2753 
L 3553 2753 
L 3553 4666 
L 4184 4666 
L 4184 0 
L 3553 0 
L 3553 2222 
L 1259 2222 
L 1259 0 
L 628 0 
L 628 4666 
z
" transform="scale(0.015625)"/>
      <path id="DejaVuSans-75" d="M 544 1381 
L 544 3500 
L 1119 3500 
L 1119 1403 
Q 1119 906 1312 657 
Q 1506 409 1894 409 
Q 2359 409 2629 706 
Q 2900 1003 2900 1516 
L 2900 3500 
L 3475 3500 
L 3475 0 
L 2900 0 
L 2900 538 
Q 2691 219 2414 64 
Q 2138 -91 1772 -91 
Q 1169 -91 856 284 
Q 544 659 544 1381 
z
M 1991 3584 
L 1991 3584 
z
" transform="scale(0.015625)"/>
      <path id="DejaVuSans-62" d="M 3116 1747 
Q 3116 2381 2855 2742 
Q 2594 3103 2138 3103 
Q 1681 3103 1420 2742 
Q 1159 2381 1159 1747 
Q 1159 1113 1420 752 
Q 1681 391 2138 391 
Q 2594 391 2855 752 
Q 3116 1113 3116 1747 
z
M 1159 2969 
Q 1341 3281 1617 3432 
Q 1894 3584 2278 3584 
Q 2916 3584 3314 3078 
Q 3713 2572 3713 1747 
Q 3713 922 3314 415 
Q 2916 -91 2278 -91 
Q 1894 -91 1617 61 
Q 1341 213 1159 525 
L 1159 0 
L 581 0 
L 581 4863 
L 1159 4863 
L 1159 2969 
z
" transform="scale(0.015625)"/>
     </defs>
     <use xlink:href="#DejaVuSans-52"/>
     <use xlink:href="#DejaVuSans-65" transform="translate(64.982422 0)"/>
     <use xlink:href="#DejaVuSans-6c" transform="translate(126.505859 0)"/>
     <use xlink:href="#DejaVuSans-61" transform="translate(154.289062 0)"/>
     <use xlink:href="#DejaVuSans-79" transform="translate(215.568359 0)"/>
     <use xlink:href="#DejaVuSans-20" transform="translate(274.748047 0)"/>
     <use xlink:href="#DejaVuSans-63" transform="translate(306.535156 0)"/>
     <use xlink:href="#DejaVuSans-68" transform="translate(361.515625 0)"/>
     <use xlink:href="#DejaVuSans-61" transform="translate(424.894531 0)"/>
     <use xlink:href="#DejaVuSans-6e" transform="translate(486.173828 0)"/>
     <use xlink:href="#DejaVuSans-6e" transform="translate(549.552734 0)"/>
     <use xlink:href="#DejaVuSans-65" transform="translate(612.931641 0)"/>
     <use xlink:href="#DejaVuSans-6c" transform="translate(674.455078 0)"/>
     <use xlink:href="#DejaVuSans-20" transform="translate(702.238281 0)"/>
     <use xlink:href="#DejaVuSans-2014" transform="translate(734.025391 0)"/>
     <use xlink:href="#DejaVuSans-20" transform="translate(834.025391 0)"/>
     <use xlink:href="#DejaVuSans-6f" transform="translate(865.8125 0)"/>
     <use xlink:href="#DejaVuSans-6e" transform="translate(926.994141 0)"/>
     <use xlink:href="#DejaVuSans-65" transform="translate(990.373047 0)"/>
     <use xlink:href="#DejaVuSans-20" transform="translate(1051.896484 0)"/>
     <use xlink:href="#DejaVuSans-6f" transform="translate(1083.683594 0)"/>
     <use xlink:href="#DejaVuSans-66" transform="translate(1144.865234 0)"/>
     <use xlink:href="#DejaVuSans-20" transform="translate(1180.070312 0)"/>
     <use xlink:href="#DejaVuSans-34" transform="translate(1211.857422 0)"/>
     <use xlink:href="#DejaVuSans-20" transform="translate(1275.480469 0)"/>
     <use xlink:href="#DejaVuSans-28" transform="translate(1307.267578 0)"/>
     <use xlink:href="#DejaVuSans-42" transform="translate(1346.28125 0)"/>
     <use xlink:href="#DejaVuSans-54" transform="translate(1414.884766 0)"/>
     <use xlink:href="#DejaVuSans-4e" transform="translate(1475.96875 0)"/>
     <use xlink:href="#DejaVuSans-5f" transform="translate(1550.773438 0)"/>
     <use xlink:href="#DejaVuSans-41" transform="translate(1600.773438 0)"/>
     <use xlink:href="#DejaVuSans-20" transform="translate(1669.181641 0)"/>
     <use xlink:href="#DejaVuSans-73" transform="translate(1700.96875 0)"/>
     <use xlink:href="#DejaVuSans-68" transform="translate(1753.068359 0)"/>
     <use xlink:href="#DejaVuSans-6f" transform="translate(1816.447266 0)"/>
     <use xlink:href="#DejaVuSans-77" transform="translate(1877.628906 0)"/>
     <use xlink:href="#DejaVuSans-6e" transform="translate(1959.416016 0)"/>
     <use xlink:href="#DejaVuSans-3b" transform="translate(2022.794922 0)"/>
     <use xlink:href="#DejaVuSans-20" transform="translate(2056.486328 0)"/>
     <use xlink:href="#DejaVuSans-42" transform="translate(2088.273438 0)"/>
     <use xlink:href="#DejaVuSans-54" transform="translate(2156.876953 0)"/>
     <use xlink:href="#DejaVuSans-4e" transform="translate(2217.960938 0)"/>
     <use xlink:href="#DejaVuSans-5f" transform="translate(2292.765625 0)"/>
     <use xlink:href="#DejaVuSans-42" transform="translate(2342.765625 0)"/>
     <use xlink:href="#DejaVuSans-2c" transform="translate(2411.369141 0)"/>
     <use xlink:href="#DejaVuSans-20" transform="translate(2443.15625 0)"/>
     <use xlink:href="#DejaVuSans-42" transform="translate(2474.943359 0)"/>
     <use xlink:href="#DejaVuSans-54" transform="translate(2543.546875 0)"/>
     <use xlink:href="#DejaVuSans-4e" transform="translate(2604.630859 0)"/>
     <use xlink:href="#DejaVuSans-5f" transform="translate(2679.435547 0)"/>
     <use xlink:href="#DejaVuSans-53" transform="translate(2729.435547 0)"/>
     <use xlink:href="#DejaVuSans-57" transform="translate(2792.912109 0)"/>
     <use xlink:href="#DejaVuSans-49" transform="translate(2891.789062 0)"/>
     <use xlink:href="#DejaVuSans-54" transform="translate(2921.28125 0)"/>
     <use xlink:href="#DejaVuSans-43" transform="translate(2976.490234 0)"/>
     <use xlink:href="#DejaVuSans-48" transform="translate(3046.314453 0)"/>
     <use xlink:href="#DejaVuSans-2c" transform="translate(3121.509766 0)"/>
     <use xlink:href="#DejaVuSans-20" transform="translate(3153.296875 0)"/>
     <use xlink:href="#DejaVuSans-52" transform="translate(3185.083984 0)"/>
     <use xlink:href="#DejaVuSans-45" transform="translate(3254.566406 0)"/>
     <use xlink:href="#DejaVuSans-53" transform="translate(3317.75 0)"/>
     <use xlink:href="#DejaVuSans-45" transform="translate(3381.226562 0)"/>
     <use xlink:href="#DejaVuSans-54" transform="translate(3444.410156 0)"/>
     <use xlink:href="#DejaVuSans-20" transform="translate(3505.494141 0)"/>
     <use xlink:href="#DejaVuSans-77" transform="translate(3537.28125 0)"/>
     <use xlink:href="#DejaVuSans-69" transform="translate(3619.068359 0)"/>
     <use xlink:href="#DejaVuSans-72" transform="translate(3646.851562 0)"/>
     <use xlink:href="#DejaVuSans-65" transform="translate(3685.714844 0)"/>
     <use xlink:href="#DejaVuSans-20" transform="translate(3747.238281 0)"/>
     <use xlink:href="#DejaVuSans-69" transform="translate(3779.025391 0)"/>
     <use xlink:href="#DejaVuSans-64" transform="translate(3806.808594 0)"/>
     <use xlink:href="#DejaVuSans-65" transform="translate(3870.285156 0)"/>
     <use xlink:href="#DejaVuSans-6e" transform="translate(3931.808594 0)"/>
     <use xlink:href="#DejaVuSans-74" transform="translate(3995.1875 0)"/>
     <use xlink:href="#DejaVuSans-69" transform="translate(4034.396484 0)"/>
     <use xlink:href="#DejaVuSans-63" transform="translate(4062.179688 0)"/>
     <use xlink:href="#DejaVuSans-61" transform="translate(4117.160156 0)"/>
     <use xlink:href="#DejaVuSans-6c" transform="translate(4178.439453 0)"/>
     <use xlink:href="#DejaVuSans-6c" transform="translate(4206.222656 0)"/>
     <use xlink:href="#DejaVuSans-79" transform="translate(4234.005859 0)"/>
     <use xlink:href="#DejaVuSans-3b" transform="translate(4293.185547 0)"/>
     <use xlink:href="#DejaVuSans-20" transform="translate(4326.876953 0)"/>
     <use xlink:href="#DejaVuSans-52" transform="translate(4358.664062 0)"/>
     <use xlink:href="#DejaVuSans-45" transform="translate(4428.146484 0)"/>
     <use xlink:href="#DejaVuSans-53" transform="translate(4491.330078 0)"/>
     <use xlink:href="#DejaVuSans-45" transform="translate(4554.806641 0)"/>
     <use xlink:href="#DejaVuSans-54" transform="translate(4617.990234 0)"/>
     <use xlink:href="#DejaVuSans-20" transform="translate(4679.074219 0)"/>
     <use xlink:href="#DejaVuSans-72" transform="translate(4710.861328 0)"/>
     <use xlink:href="#DejaVuSans-6f" transform="translate(4749.724609 0)"/>
     <use xlink:href="#DejaVuSans-75" transform="translate(4810.90625 0)"/>
     <use xlink:href="#DejaVuSans-74" transform="translate(4874.285156 0)"/>
     <use xlink:href="#DejaVuSans-65" transform="translate(4913.494141 0)"/>
     <use xlink:href="#DejaVuSans-73" transform="translate(4975.017578 0)"/>
     <use xlink:href="#DejaVuSans-20" transform="translate(5027.117188 0)"/>
     <use xlink:href="#DejaVuSans-74" transform="translate(5058.904297 0)"/>
     <use xlink:href="#DejaVuSans-6f" transform="translate(5098.113281 0)"/>
     <use xlink:href="#DejaVuSans-20" transform="translate(5159.294922 0)"/>
     <use xlink:href="#DejaVuSans-44" transform="translate(5191.082031 0)"/>
     <use xlink:href="#DejaVuSans-55" transform="translate(5268.083984 0)"/>
     <use xlink:href="#DejaVuSans-54" transform="translate(5341.277344 0)"/>
     <use xlink:href="#DejaVuSans-20" transform="translate(5402.361328 0)"/>
     <use xlink:href="#DejaVuSans-45" transform="translate(5434.148438 0)"/>
     <use xlink:href="#DejaVuSans-4e" transform="translate(5497.332031 0)"/>
     <use xlink:href="#DejaVuSans-2c" transform="translate(5572.136719 0)"/>
     <use xlink:href="#DejaVuSans-20" transform="translate(5603.923828 0)"/>
     <use xlink:href="#DejaVuSans-6e" transform="translate(5635.710938 0)"/>
     <use xlink:href="#DejaVuSans-6f" transform="translate(5699.089844 0)"/>
     <use xlink:href="#DejaVuSans-74" transform="translate(5760.271484 0)"/>
     <use xlink:href="#DejaVuSans-20" transform="translate(5799.480469 0)"/>
     <use xlink:href="#DejaVuSans-61" transform="translate(5831.267578 0)"/>
     <use xlink:href="#DejaVuSans-20" transform="translate(5892.546875 0)"/>
     <use xlink:href="#DejaVuSans-62" transform="translate(5924.333984 0)"/>
     <use xlink:href="#DejaVuSans-75" transform="translate(5987.810547 0)"/>
     <use xlink:href="#DejaVuSans-74" transform="translate(6051.189453 0)"/>
     <use xlink:href="#DejaVuSans-74" transform="translate(6090.398438 0)"/>
     <use xlink:href="#DejaVuSans-6f" transform="translate(6129.607422 0)"/>
     <use xlink:href="#DejaVuSans-6e" transform="translate(6190.789062 0)"/>
     <use xlink:href="#DejaVuSans-20" transform="translate(6254.167969 0)"/>
     <use xlink:href="#DejaVuSans-6c" transform="translate(6285.955078 0)"/>
     <use xlink:href="#DejaVuSans-69" transform="translate(6313.738281 0)"/>
     <use xlink:href="#DejaVuSans-6e" transform="translate(6341.521484 0)"/>
     <use xlink:href="#DejaVuSans-65" transform="translate(6404.900391 0)"/>
     <use xlink:href="#DejaVuSans-29" transform="translate(6466.423828 0)"/>
    </g>
   </g>
   <g id="patch_9">
    <path d="M 405.18 35.38 
C 405.896048 35.38 406.582866 35.095511 407.089188 34.589188 
C 407.595511 34.082866 407.88 33.396048 407.88 32.68 
C 407.88 31.963952 407.595511 31.277134 407.089188 30.770812 
C 406.582866 30.264489 405.896048 29.98 405.18 29.98 
C 404.463952 29.98 403.777134 30.264489 403.270812 30.770812 
C 402.764489 31.277134 402.48 31.963952 402.48 32.68 
C 402.48 33.396048 402.764489 34.082866 403.270812 34.589188 
C 403.777134 35.095511 404.463952 35.38 405.18 35.38 
z
" clip-path="url(#pf750c6f2de)" style="stroke: #000000; stroke-width: 2; stroke-linejoin: miter"/>
   </g>
   <g id="patch_10">
    <path d="M 614.699978 197.38 
C 615.416026 197.38 616.102843 197.095511 616.609166 196.589188 
C 617.115489 196.082866 617.399978 195.396048 617.399978 194.68 
C 617.399978 193.963952 617.115489 193.277134 616.609166 192.770812 
C 616.102843 192.264489 615.416026 191.98 614.699978 191.98 
C 613.983929 191.98 613.297112 192.264489 612.790789 192.770812 
C 612.284467 193.277134 611.999978 193.963952 611.999978 194.68 
C 611.999978 195.396048 612.284467 196.082866 612.790789 196.589188 
C 613.297112 197.095511 613.983929 197.38 614.699978 197.38 
z
" clip-path="url(#pf750c6f2de)" style="fill: #ffffff; stroke: #000000; stroke-width: 2; stroke-linejoin: miter"/>
   </g>
   <g id="text_14">
    <!-- DUT BTN_A -->
    <g transform="translate(620.999978 187.483125) scale(0.1 -0.1)">
     <use xlink:href="#DejaVuSans-44"/>
     <use xlink:href="#DejaVuSans-55" transform="translate(77.001953 0)"/>
     <use xlink:href="#DejaVuSans-54" transform="translate(150.195312 0)"/>
     <use xlink:href="#DejaVuSans-20" transform="translate(211.279297 0)"/>
     <use xlink:href="#DejaVuSans-42" transform="translate(243.066406 0)"/>
     <use xlink:href="#DejaVuSans-54" transform="translate(311.669922 0)"/>
     <use xlink:href="#DejaVuSans-4e" transform="translate(372.753906 0)"/>
     <use xlink:href="#DejaVuSans-5f" transform="translate(447.558594 0)"/>
     <use xlink:href="#DejaVuSans-41" transform="translate(497.558594 0)"/>
    </g>
    <!-- (via 30-pin socket -->
    <g transform="translate(620.999978 197.439375) scale(0.1 -0.1)">
     <defs>
      <path id="DejaVuSans-76" d="M 191 3500 
L 800 3500 
L 1894 563 
L 2988 3500 
L 3597 3500 
L 2284 0 
L 1503 0 
L 191 3500 
z
" transform="scale(0.015625)"/>
      <path id="DejaVuSans-70" d="M 1159 525 
L 1159 -1331 
L 581 -1331 
L 581 3500 
L 1159 3500 
L 1159 2969 
Q 1341 3281 1617 3432 
Q 1894 3584 2278 3584 
Q 2916 3584 3314 3078 
Q 3713 2572 3713 1747 
Q 3713 922 3314 415 
Q 2916 -91 2278 -91 
Q 1894 -91 1617 61 
Q 1341 213 1159 525 
z
M 3116 1747 
Q 3116 2381 2855 2742 
Q 2594 3103 2138 3103 
Q 1681 3103 1420 2742 
Q 1159 2381 1159 1747 
Q 1159 1113 1420 752 
Q 1681 391 2138 391 
Q 2594 391 2855 752 
Q 3116 1113 3116 1747 
z
" transform="scale(0.015625)"/>
      <path id="DejaVuSans-6b" d="M 581 4863 
L 1159 4863 
L 1159 1991 
L 2875 3500 
L 3609 3500 
L 1753 1863 
L 3688 0 
L 2938 0 
L 1159 1709 
L 1159 0 
L 581 0 
L 581 4863 
z
" transform="scale(0.015625)"/>
     </defs>
     <use xlink:href="#DejaVuSans-28"/>
     <use xlink:href="#DejaVuSans-76" transform="translate(39.013672 0)"/>
     <use xlink:href="#DejaVuSans-69" transform="translate(98.193359 0)"/>
     <use xlink:href="#DejaVuSans-61" transform="translate(125.976562 0)"/>
     <use xlink:href="#DejaVuSans-20" transform="translate(187.255859 0)"/>
     <use xlink:href="#DejaVuSans-33" transform="translate(219.042969 0)"/>
     <use xlink:href="#DejaVuSans-30" transform="translate(282.666016 0)"/>
     <use xlink:href="#DejaVuSans-2d" transform="translate(346.289062 0)"/>
     <use xlink:href="#DejaVuSans-70" transform="translate(382.373047 0)"/>
     <use xlink:href="#DejaVuSans-69" transform="translate(445.849609 0)"/>
     <use xlink:href="#DejaVuSans-6e" transform="translate(473.632812 0)"/>
     <use xlink:href="#DejaVuSans-20" transform="translate(537.011719 0)"/>
     <use xlink:href="#DejaVuSans-73" transform="translate(568.798828 0)"/>
     <use xlink:href="#DejaVuSans-6f" transform="translate(620.898438 0)"/>
     <use xlink:href="#DejaVuSans-63" transform="translate(682.080078 0)"/>
     <use xlink:href="#DejaVuSans-6b" transform="translate(737.060547 0)"/>
     <use xlink:href="#DejaVuSans-65" transform="translate(791.345703 0)"/>
     <use xlink:href="#DejaVuSans-74" transform="translate(852.869141 0)"/>
    </g>
    <!-- or screw terminal) -->
    <g transform="translate(620.999978 207.1175) scale(0.1 -0.1)">
     <use xlink:href="#DejaVuSans-6f"/>
     <use xlink:href="#DejaVuSans-72" transform="translate(61.181641 0)"/>
     <use xlink:href="#DejaVuSans-20" transform="translate(102.294922 0)"/>
     <use xlink:href="#DejaVuSans-73" transform="translate(134.082031 0)"/>
     <use xlink:href="#DejaVuSans-63" transform="translate(186.181641 0)"/>
     <use xlink:href="#DejaVuSans-72" transform="translate(241.162109 0)"/>
     <use xlink:href="#DejaVuSans-65" transform="translate(280.025391 0)"/>
     <use xlink:href="#DejaVuSans-77" transform="translate(341.548828 0)"/>
     <use xlink:href="#DejaVuSans-20" transform="translate(423.335938 0)"/>
     <use xlink:href="#DejaVuSans-74" transform="translate(455.123047 0)"/>
     <use xlink:href="#DejaVuSans-65" transform="translate(494.332031 0)"/>
     <use xlink:href="#DejaVuSans-72" transform="translate(555.855469 0)"/>
     <use xlink:href="#DejaVuSans-6d" transform="translate(595.21875 0)"/>
     <use xlink:href="#DejaVuSans-69" transform="translate(692.630859 0)"/>
     <use xlink:href="#DejaVuSans-6e" transform="translate(720.414062 0)"/>
     <use xlink:href="#DejaVuSans-61" transform="translate(783.792969 0)"/>
     <use xlink:href="#DejaVuSans-6c" transform="translate(845.072266 0)"/>
     <use xlink:href="#DejaVuSans-29" transform="translate(872.855469 0)"/>
    </g>
   </g>
  </g>
 </g>
 <defs>
  <clipPath id="pf750c6f2de">
   <rect x="0" y="0" width="705.779978" height="339.4"/>
  </clipPath>
 </defs>
</svg>
