<?xml version="1.0" encoding="utf-8" standalone="no"?>
<!DOCTYPE svg PUBLIC "-//W3C//DTD SVG 1.1//EN"
  "http://www.w3.org/Graphics/SVG/1.1/DTD/svg11.dtd">
<svg xmlns:xlink="http://www.w3.org/1999/xlink" width="809.48125pt" height="289.76pt" viewBox="0 0 809.48125 289.76" xmlns="http://www.w3.org/2000/svg" version="1.1">
 <metadata>
  <rdf:RDF xmlns:dc="http://purl.org/dc/elements/1.1/" xmlns:cc="http://creativecommons.org/ns#" xmlns:rdf="http://www.w3.org/1999/02/22-rdf-syntax-ns#">
   <cc:Work>
    <dc:type rdf:resource="http://purl.org/dc/dcmitype/StillImage"/>
    <dc:date>2026-04-26T08:43:15.470001</dc:date>
    <dc:format>image/svg+xml</dc:format>
    <dc:creator>
     <cc:Agent>
      <dc:title>Matplotlib v3.10.8, https://matplotlib.org/</dc:title>
     </cc:Agent>
    </dc:creator>
   </cc:Work>
  </rdf:RDF>
 </metadata>
 <defs>
  <style type="text/css">*{stroke-linejoin: round; stroke-linecap: butt}</style>
 </defs>
 <rect width="100%" height="100%" fill="white"/>
 <g id="figure_1">
  <g id="patch_1">
   <path d="M 0 289.76 
L 809.48125 289.76 
L 809.48125 0 
L 0 0 
L 0 289.76 
z
" style="fill: none"/>
  </g>
  <g id="axes_1">
   <g id="patch_2">
    <path d="M 499.58125 241.48 
L 499.58125 173.08 
L 586.04125 173.08 
L 586.04125 241.48 
L 499.58125 241.48 
z
" clip-path="url(#pfc8dd7d76c)" style="fill: none"/>
   </g>
   <g id="line2d_1">
    <path d="M 499.58125 241.48 
L 499.58125 173.08 
L 586.04125 173.08 
L 586.04125 241.48 
L 499.58125 241.48 
" clip-path="url(#pfc8dd7d76c)" style="fill: none; stroke: #000000; stroke-width: 2; stroke-linecap: round"/>
   </g>
   <g id="patch_3">
    <path d="M 196.28125 171.28 
L 208.88125 180.28 
L 196.28125 189.28 
L 196.28125 171.28 
z
" clip-path="url(#pfc8dd7d76c)" style="fill: none; stroke: #000000; stroke-width: 2; stroke-linecap: round"/>
   </g>
   <g id="patch_4">
    <path d="M 261.08125 171.28 
L 273.68125 180.28 
L 261.08125 189.28 
L 261.08125 171.28 
z
" clip-path="url(#pfc8dd7d76c)" style="fill: none; stroke: #000000; stroke-width: 2; stroke-linecap: round"/>
   </g>
   <g id="patch_5">
    <path d="M 524.78125 200.98 
L 515.78125 213.58 
L 506.78125 200.98 
L 524.78125 200.98 
z
" clip-path="url(#pfc8dd7d76c)" style="fill: none; stroke: #000000; stroke-width: 2; stroke-linecap: round"/>
   </g>
   <g id="line2d_2">
    <path d="M 62.18125 180.28 
L 80.18125 180.28 
L 98.18125 180.28 
" clip-path="url(#pfc8dd7d76c)" style="fill: none; stroke: #000000; stroke-width: 2; stroke-linecap: round"/>
   </g>
   <g id="line2d_3">
    <path d="M 98.18125 180.28 
L 116.18125 180.28 
L 119.18125 171.28 
L 125.18125 189.28 
L 131.18125 171.28 
L 137.18125 189.28 
L 143.18125 171.28 
L 149.18125 189.28 
L 152.18125 180.28 
L 170.18125 180.28 
" clip-path="url(#pfc8dd7d76c)" style="fill: none; stroke: #000000; stroke-width: 2; stroke-linecap: round"/>
   </g>
   <g id="line2d_4">
    <path d="M 170.18125 180.28 
L 196.28125 180.28 
M 208.88125 171.28 
L 208.88125 189.28 
M 208.88125 180.28 
L 234.98125 180.28 
" clip-path="url(#pfc8dd7d76c)" style="fill: none; stroke: #000000; stroke-width: 2; stroke-linecap: round"/>
   </g>
   <g id="line2d_5">
    <path d="M 205.28125 166.78 
L 210.70905 157.281351 
" clip-path="url(#pfc8dd7d76c)" style="fill: none; stroke: #000000; stroke-width: 2; stroke-linecap: round"/>
   </g>
   <g id="patch_6">
    <path d="M 208.208509 155.85247 
L 214.28125 151.03 
L 213.20959 158.710231 
z
" clip-path="url(#pfc8dd7d76c)"/>
   </g>
   <g id="line2d_6">
    <path d="M 197.18125 166.78 
L 202.60905 157.281351 
" clip-path="url(#pfc8dd7d76c)" style="fill: none; stroke: #000000; stroke-width: 2; stroke-linecap: round"/>
   </g>
   <g id="patch_7">
    <path d="M 200.108509 155.85247 
L 206.18125 151.03 
L 205.10959 158.710231 
z
" clip-path="url(#pfc8dd7d76c)"/>
   </g>
   <g id="line2d_7">
    <path d="M 234.98125 180.28 
L 261.08125 180.28 
M 273.68125 171.28 
L 273.68125 189.28 
M 273.68125 180.28 
L 299.78125 180.28 
" clip-path="url(#pfc8dd7d76c)" style="fill: none; stroke: #000000; stroke-width: 2; stroke-linecap: round"/>
   </g>
   <g id="line2d_8">
    <path d="M 270.08125 166.78 
L 275.50905 157.281351 
" clip-path="url(#pfc8dd7d76c)" style="fill: none; stroke: #000000; stroke-width: 2; stroke-linecap: round"/>
   </g>
   <g id="patch_8">
    <path d="M 273.008509 155.85247 
L 279.08125 151.03 
L 278.00959 158.710231 
z
" clip-path="url(#pfc8dd7d76c)"/>
   </g>
   <g id="line2d_9">
    <path d="M 261.98125 166.78 
L 267.40905 157.281351 
" clip-path="url(#pfc8dd7d76c)" style="fill: none; stroke: #000000; stroke-width: 2; stroke-linecap: round"/>
   </g>
   <g id="patch_9">
    <path d="M 264.908509 155.85247 
L 270.98125 151.03 
L 269.90959 158.710231 
z
" clip-path="url(#pfc8dd7d76c)"/>
   </g>
   <g id="line2d_10">
    <path d="M 299.78125 180.28 
L 326.78125 180.28 
L 353.78125 180.28 
" clip-path="url(#pfc8dd7d76c)" style="fill: none; stroke: #000000; stroke-width: 2; stroke-linecap: round"/>
   </g>
   <g id="line2d_11">
    <path d="M 353.78125 180.28 
L 353.78125 194.68 
L 344.78125 194.68 
L 362.78125 194.68 
M 347.48125 199 
L 360.08125 199 
M 351.98125 203.32 
L 355.58125 203.32 
" clip-path="url(#pfc8dd7d76c)" style="fill: none; stroke: #000000; stroke-width: 2; stroke-linecap: round"/>
   </g>
   <g id="line2d_12">
    <path d="M 515.78125 180.28 
L 515.78125 200.98 
M 524.78125 213.58 
L 506.78125 213.58 
M 515.78125 213.58 
L 515.78125 234.28 
" clip-path="url(#pfc8dd7d76c)" style="fill: none; stroke: #000000; stroke-width: 2; stroke-linecap: round"/>
   </g>
   <g id="line2d_13">
    <path d="M 564.98125 194.08 
L 564.98125 220.48 
" clip-path="url(#pfc8dd7d76c)" style="fill: none; stroke: #000000; stroke-width: 2; stroke-linecap: round"/>
   </g>
   <g id="line2d_14">
    <path d="M 564.98125 200.68 
L 578.84125 188.8 
L 578.84125 182.2 
" clip-path="url(#pfc8dd7d76c)" style="fill: none; stroke: #000000; stroke-width: 2; stroke-linecap: round"/>
   </g>
   <g id="line2d_15">
    <path d="M 564.98125 213.88 
L 578.84125 225.76 
L 578.84125 232.36 
" clip-path="url(#pfc8dd7d76c)" style="fill: none; stroke: #000000; stroke-width: 2; stroke-linecap: round"/>
   </g>
   <g id="line2d_16">
    <path d="M 564.98125 213.88 
L 572.007941 219.902878 
" clip-path="url(#pfc8dd7d76c)" style="fill: none; stroke: #000000; stroke-width: 2; stroke-linecap: round"/>
   </g>
   <g id="patch_10">
    <path d="M 574.35079 217.169554 
L 578.84125 225.76 
L 569.665092 222.636201 
z
" clip-path="url(#pfc8dd7d76c)"/>
   </g>
   <g id="line2d_17">
    <path d="M 533.78125 200.08 
L 544.58125 200.08 
L 548.18125 200.08 
" clip-path="url(#pfc8dd7d76c)" style="fill: none; stroke: #000000; stroke-width: 2; stroke-linecap: round"/>
   </g>
   <g id="patch_11">
    <path d="M 548.18125 197.38 
L 555.38125 200.08 
L 548.18125 202.78 
z
" clip-path="url(#pfc8dd7d76c)"/>
   </g>
   <g id="line2d_18">
    <path d="M 533.78125 214.48 
L 544.58125 214.48 
L 548.18125 214.48 
" clip-path="url(#pfc8dd7d76c)" style="fill: none; stroke: #000000; stroke-width: 2; stroke-linecap: round"/>
   </g>
   <g id="patch_12">
    <path d="M 548.18125 211.78 
L 555.38125 214.48 
L 548.18125 217.18 
z
" clip-path="url(#pfc8dd7d76c)"/>
   </g>
   <g id="line2d_19">
    <path d="M 578.84125 182.2 
L 582.44125 182.2 
L 586.04125 182.2 
" clip-path="url(#pfc8dd7d76c)" style="fill: none; stroke: #000000; stroke-width: 2; stroke-linecap: round"/>
   </g>
   <g id="line2d_20">
    <path d="M 578.84125 232.36 
L 582.44125 232.36 
L 586.04125 232.36 
" clip-path="url(#pfc8dd7d76c)" style="fill: none; stroke: #000000; stroke-width: 2; stroke-linecap: round"/>
   </g>
   <g id="line2d_21">
    <path d="M 515.78125 180.28 
L 507.68125 180.28 
L 499.58125 180.28 
" clip-path="url(#pfc8dd7d76c)" style="fill: none; stroke: #000000; stroke-width: 2; stroke-linecap: round"/>
   </g>
   <g id="line2d_22">
    <path d="M 515.78125 234.28 
L 507.68125 234.28 
L 499.58125 234.28 
" clip-path="url(#pfc8dd7d76c)" style="fill: none; stroke: #000000; stroke-width: 2; stroke-linecap: round"/>
   </g>
   <g id="line2d_23">
    <path d="M 586.04125 182.2 
L 604.04125 182.2 
L 622.04125 182.2 
" clip-path="url(#pfc8dd7d76c)" style="fill: none; stroke: #000000; stroke-width: 2; stroke-linecap: round"/>
   </g>
   <g id="line2d_24">
    <path d="M 622.04125 182.2 
L 622.04125 164.2 
L 613.04125 161.2 
L 631.04125 155.2 
L 613.04125 149.2 
L 631.04125 143.2 
L 613.04125 137.2 
L 631.04125 131.2 
L 622.04125 128.2 
L 622.04125 110.2 
" clip-path="url(#pfc8dd7d76c)" style="fill: none; stroke: #000000; stroke-width: 2; stroke-linecap: round"/>
   </g>
   <g id="line2d_25">
    <path d="M 622.04125 110.2 
L 622.04125 95.8 
" clip-path="url(#pfc8dd7d76c)" style="fill: none; stroke: #000000; stroke-width: 2; stroke-linecap: round"/>
   </g>
   <g id="line2d_26">
    <path d="M 622.04125 95.8 
L 615.29125 95.8 
" clip-path="url(#pfc8dd7d76c)" style="fill: none; stroke: #000000; stroke-width: 2; stroke-linecap: round"/>
   </g>
   <g id="line2d_27">
    <path d="M 622.04125 95.8 
L 628.79125 95.8 
" clip-path="url(#pfc8dd7d76c)" style="fill: none; stroke: #000000; stroke-width: 2; stroke-linecap: round"/>
   </g>
   <g id="line2d_28">
    <path d="M 622.04125 182.2 
L 667.04125 182.2 
L 712.04125 182.2 
" clip-path="url(#pfc8dd7d76c)" style="fill: none; stroke: #000000; stroke-width: 2; stroke-linecap: round"/>
   </g>
   <g id="line2d_29">
    <path d="M 586.04125 232.36 
L 604.04125 232.36 
L 622.04125 232.36 
" clip-path="url(#pfc8dd7d76c)" style="fill: none; stroke: #000000; stroke-width: 2; stroke-linecap: round"/>
   </g>
   <g id="line2d_30">
    <path d="M 622.04125 232.36 
L 622.04125 246.76 
L 613.04125 246.76 
L 631.04125 246.76 
M 615.74125 251.08 
L 628.34125 251.08 
M 620.24125 255.4 
L 623.84125 255.4 
" clip-path="url(#pfc8dd7d76c)" style="fill: none; stroke: #000000; stroke-width: 2; stroke-linecap: round"/>
   </g>
   <g id="line2d_31">
    <path d="M 306.98125 223.48 
L 399.68125 223.48 
L 492.38125 223.48 
" clip-path="url(#pfc8dd7d76c)" style="fill: none; stroke-dasharray: 2,3.3; stroke-dashoffset: 0; stroke: #000000; stroke-width: 2"/>
   </g>
   <g id="text_1">
    <!-- R_DUT -->
    <g transform="translate(117.64375 155.644062) scale(0.1 -0.1)">
     <defs>
      <path id="DejaVuSans-52" d="M 2841 2188 
Q 3044 2119 3236 1894 
Q 3428 1669 3622 1275 
L 4263 0 
L 3584 0 
L 2988 1197 
Q 2756 1666 2539 1819 
Q 2322 1972 1947 1972 
L 1259 1972 
L 1259 0 
L 628 0 
L 628 4666 
L 2053 4666 
Q 2853 4666 3247 4331 
Q 3641 3997 3641 3322 
Q 3641 2881 3436 2590 
Q 3231 2300 2841 2188 
z
M 1259 4147 
L 1259 2491 
L 2053 2491 
Q 2509 2491 2742 2702 
Q 2975 2913 2975 3322 
Q 2975 3731 2742 3939 
Q 2509 4147 2053 4147 
L 1259 4147 
z
" transform="scale(0.015625)"/>
      <path id="DejaVuSans-5f" d="M 3263 -1063 
L 3263 -1509 
L -63 -1509 
L -63 -1063 
L 3263 -1063 
z
" transform="scale(0.015625)"/>
      <path id="DejaVuSans-44" d="M 1259 4147 
L 1259 519 
L 2022 519 
Q 2988 519 3436 956 
Q 3884 1394 3884 2338 
Q 3884 3275 3436 3711 
Q 2988 4147 2022 4147 
L 1259 4147 
z
M 628 4666 
L 1925 4666 
Q 3281 4666 3915 4102 
Q 4550 3538 4550 2338 
Q 4550 1131 3912 565 
Q 3275 0 1925 0 
L 628 0 
L 628 4666 
z
" transform="scale(0.015625)"/>
      <path id="DejaVuSans-55" d="M 556 4666 
L 1191 4666 
L 1191 1831 
Q 1191 1081 1462 751 
Q 1734 422 2344 422 
Q 2950 422 3222 751 
Q 3494 1081 3494 1831 
L 3494 4666 
L 4128 4666 
L 4128 1753 
Q 4128 841 3676 375 
Q 3225 -91 2344 -91 
Q 1459 -91 1007 375 
Q 556 841 556 1753 
L 556 4666 
z
" transform="scale(0.015625)"/>
      <path id="DejaVuSans-54" d="M -19 4666 
L 3928 4666 
L 3928 4134 
L 2272 4134 
L 2272 0 
L 1638 0 
L 1638 4134 
L -19 4134 
L -19 4666 
z
" transform="scale(0.015625)"/>
     </defs>
     <use xlink:href="#DejaVuSans-52"/>
     <use xlink:href="#DejaVuSans-5f" transform="translate(69.482422 0)"/>
     <use xlink:href="#DejaVuSans-44" transform="translate(119.482422 0)"/>
     <use xlink:href="#DejaVuSans-55" transform="translate(196.484375 0)"/>
     <use xlink:href="#DejaVuSans-54" transform="translate(269.677734 0)"/>
    </g>
    <!-- (existing) -->
    <g transform="translate(110.645313 165.600312) scale(0.1 -0.1)">
     <defs>
      <path id="DejaVuSans-28" d="M 1984 4856 
Q 1566 4138 1362 3434 
Q 1159 2731 1159 2009 
Q 1159 1288 1364 580 
Q 1569 -128 1984 -844 
L 1484 -844 
Q 1016 -109 783 600 
Q 550 1309 550 2009 
Q 550 2706 781 3412 
Q 1013 4119 1484 4856 
L 1984 4856 
z
" transform="scale(0.015625)"/>
      <path id="DejaVuSans-65" d="M 3597 1894 
L 3597 1613 
L 953 1613 
Q 991 1019 1311 708 
Q 1631 397 2203 397 
Q 2534 397 2845 478 
Q 3156 559 3463 722 
L 3463 178 
Q 3153 47 2828 -22 
Q 2503 -91 2169 -91 
Q 1331 -91 842 396 
Q 353 884 353 1716 
Q 353 2575 817 3079 
Q 1281 3584 2069 3584 
Q 2775 3584 3186 3129 
Q 3597 2675 3597 1894 
z
M 3022 2063 
Q 3016 2534 2758 2815 
Q 2500 3097 2075 3097 
Q 1594 3097 1305 2825 
Q 1016 2553 972 2059 
L 3022 2063 
z
" transform="scale(0.015625)"/>
      <path id="DejaVuSans-78" d="M 3513 3500 
L 2247 1797 
L 3578 0 
L 2900 0 
L 1881 1375 
L 863 0 
L 184 0 
L 1544 1831 
L 300 3500 
L 978 3500 
L 1906 2253 
L 2834 3500 
L 3513 3500 
z
" transform="scale(0.015625)"/>
      <path id="DejaVuSans-69" d="M 603 3500 
L 1178 3500 
L 1178 0 
L 603 0 
L 603 3500 
z
M 603 4863 
L 1178 4863 
L 1178 4134 
L 603 4134 
L 603 4863 
z
" transform="scale(0.015625)"/>
      <path id="DejaVuSans-73" d="M 2834 3397 
L 2834 2853 
Q 2591 2978 2328 3040 
Q 2066 3103 1784 3103 
Q 1356 3103 1142 2972 
Q 928 2841 928 2578 
Q 928 2378 1081 2264 
Q 1234 2150 1697 2047 
L 1894 2003 
Q 2506 1872 2764 1633 
Q 3022 1394 3022 966 
Q 3022 478 2636 193 
Q 2250 -91 1575 -91 
Q 1294 -91 989 -36 
Q 684 19 347 128 
L 347 722 
Q 666 556 975 473 
Q 1284 391 1588 391 
Q 1994 391 2212 530 
Q 2431 669 2431 922 
Q 2431 1156 2273 1281 
Q 2116 1406 1581 1522 
L 1381 1569 
Q 847 1681 609 1914 
Q 372 2147 372 2553 
Q 372 3047 722 3315 
Q 1072 3584 1716 3584 
Q 2034 3584 2315 3537 
Q 2597 3491 2834 3397 
z
" transform="scale(0.015625)"/>
      <path id="DejaVuSans-74" d="M 1172 4494 
L 1172 3500 
L 2356 3500 
L 2356 3053 
L 1172 3053 
L 1172 1153 
Q 1172 725 1289 603 
Q 1406 481 1766 481 
L 2356 481 
L 2356 0 
L 1766 0 
Q 1100 0 847 248 
Q 594 497 594 1153 
L 594 3053 
L 172 3053 
L 172 3500 
L 594 3500 
L 594 4494 
L 1172 4494 
z
" transform="scale(0.015625)"/>
      <path id="DejaVuSans-6e" d="M 3513 2113 
L 3513 0 
L 2938 0 
L 2938 2094 
Q 2938 2591 2744 2837 
Q 2550 3084 2163 3084 
Q 1697 3084 1428 2787 
Q 1159 2491 1159 1978 
L 1159 0 
L 581 0 
L 581 3500 
L 1159 3500 
L 1159 2956 
Q 1366 3272 1645 3428 
Q 1925 3584 2291 3584 
Q 2894 3584 3203 3211 
Q 3513 2838 3513 2113 
z
" transform="scale(0.015625)"/>
      <path id="DejaVuSans-67" d="M 2906 1791 
Q 2906 2416 2648 2759 
Q 2391 3103 1925 3103 
Q 1463 3103 1205 2759 
Q 947 2416 947 1791 
Q 947 1169 1205 825 
Q 1463 481 1925 481 
Q 2391 481 2648 825 
Q 2906 1169 2906 1791 
z
M 3481 434 
Q 3481 -459 3084 -895 
Q 2688 -1331 1869 -1331 
Q 1566 -1331 1297 -1286 
Q 1028 -1241 775 -1147 
L 775 -588 
Q 1028 -725 1275 -790 
Q 1522 -856 1778 -856 
Q 2344 -856 2625 -561 
Q 2906 -266 2906 331 
L 2906 616 
Q 2728 306 2450 153 
Q 2172 0 1784 0 
Q 1141 0 747 490 
Q 353 981 353 1791 
Q 353 2603 747 3093 
Q 1141 3584 1784 3584 
Q 2172 3584 2450 3431 
Q 2728 3278 2906 2969 
L 2906 3500 
L 3481 3500 
L 3481 434 
z
" transform="scale(0.015625)"/>
      <path id="DejaVuSans-29" d="M 513 4856 
L 1013 4856 
Q 1481 4119 1714 3412 
Q 1947 2706 1947 2009 
Q 1947 1309 1714 600 
Q 1481 -109 1013 -844 
L 513 -844 
Q 928 -128 1133 580 
Q 1338 1288 1338 2009 
Q 1338 2731 1133 3434 
Q 928 4138 513 4856 
z
" transform="scale(0.015625)"/>
     </defs>
     <use xlink:href="#DejaVuSans-28"/>
     <use xlink:href="#DejaVuSans-65" transform="translate(39.013672 0)"/>
     <use xlink:href="#DejaVuSans-78" transform="translate(98.787109 0)"/>
     <use xlink:href="#DejaVuSans-69" transform="translate(157.966797 0)"/>
     <use xlink:href="#DejaVuSans-73" transform="translate(185.75 0)"/>
     <use xlink:href="#DejaVuSans-74" transform="translate(237.849609 0)"/>
     <use xlink:href="#DejaVuSans-69" transform="translate(277.058594 0)"/>
     <use xlink:href="#DejaVuSans-6e" transform="translate(304.841797 0)"/>
     <use xlink:href="#DejaVuSans-67" transform="translate(368.220703 0)"/>
     <use xlink:href="#DejaVuSans-29" transform="translate(431.697266 0)"/>
    </g>
   </g>
   <g id="text_2">
    <!-- DUT LED -->
    <g transform="translate(180.633594 129.912187) scale(0.1 -0.1)">
     <defs>
      <path id="DejaVuSans-20" transform="scale(0.015625)"/>
      <path id="DejaVuSans-4c" d="M 628 4666 
L 1259 4666 
L 1259 531 
L 3531 531 
L 3531 0 
L 628 0 
L 628 4666 
z
" transform="scale(0.015625)"/>
      <path id="DejaVuSans-45" d="M 628 4666 
L 3578 4666 
L 3578 4134 
L 1259 4134 
L 1259 2753 
L 3481 2753 
L 3481 2222 
L 1259 2222 
L 1259 531 
L 3634 531 
L 3634 0 
L 628 0 
L 628 4666 
z
" transform="scale(0.015625)"/>
     </defs>
     <use xlink:href="#DejaVuSans-44"/>
     <use xlink:href="#DejaVuSans-55" transform="translate(77.001953 0)"/>
     <use xlink:href="#DejaVuSans-54" transform="translate(150.195312 0)"/>
     <use xlink:href="#DejaVuSans-20" transform="translate(211.279297 0)"/>
     <use xlink:href="#DejaVuSans-4c" transform="translate(243.066406 0)"/>
     <use xlink:href="#DejaVuSans-45" transform="translate(298.779297 0)"/>
     <use xlink:href="#DejaVuSans-44" transform="translate(361.962891 0)"/>
    </g>
    <!-- (visible) -->
    <g transform="translate(182.697656 139.590312) scale(0.1 -0.1)">
     <defs>
      <path id="DejaVuSans-76" d="M 191 3500 
L 800 3500 
L 1894 563 
L 2988 3500 
L 3597 3500 
L 2284 0 
L 1503 0 
L 191 3500 
z
" transform="scale(0.015625)"/>
      <path id="DejaVuSans-62" d="M 3116 1747 
Q 3116 2381 2855 2742 
Q 2594 3103 2138 3103 
Q 1681 3103 1420 2742 
Q 1159 2381 1159 1747 
Q 1159 1113 1420 752 
Q 1681 391 2138 391 
Q 2594 391 2855 752 
Q 3116 1113 3116 1747 
z
M 1159 2969 
Q 1341 3281 1617 3432 
Q 1894 3584 2278 3584 
Q 2916 3584 3314 3078 
Q 3713 2572 3713 1747 
Q 3713 922 3314 415 
Q 2916 -91 2278 -91 
Q 1894 -91 1617 61 
Q 1341 213 1159 525 
L 1159 0 
L 581 0 
L 581 4863 
L 1159 4863 
L 1159 2969 
z
" transform="scale(0.015625)"/>
      <path id="DejaVuSans-6c" d="M 603 4863 
L 1178 4863 
L 1178 0 
L 603 0 
L 603 4863 
z
" transform="scale(0.015625)"/>
     </defs>
     <use xlink:href="#DejaVuSans-28"/>
     <use xlink:href="#DejaVuSans-76" transform="translate(39.013672 0)"/>
     <use xlink:href="#DejaVuSans-69" transform="translate(98.193359 0)"/>
     <use xlink:href="#DejaVuSans-73" transform="translate(125.976562 0)"/>
     <use xlink:href="#DejaVuSans-69" transform="translate(178.076172 0)"/>
     <use xlink:href="#DejaVuSans-62" transform="translate(205.859375 0)"/>
     <use xlink:href="#DejaVuSans-6c" transform="translate(269.335938 0)"/>
     <use xlink:href="#DejaVuSans-65" transform="translate(297.119141 0)"/>
     <use xlink:href="#DejaVuSans-29" transform="translate(358.642578 0)"/>
    </g>
   </g>
   <g id="text_3">
    <!-- opto input LED -->
    <g transform="translate(230.29375 200.478437) scale(0.1 -0.1)">
     <defs>
      <path id="DejaVuSans-6f" d="M 1959 3097 
Q 1497 3097 1228 2736 
Q 959 2375 959 1747 
Q 959 1119 1226 758 
Q 1494 397 1959 397 
Q 2419 397 2687 759 
Q 2956 1122 2956 1747 
Q 2956 2369 2687 2733 
Q 2419 3097 1959 3097 
z
M 1959 3584 
Q 2709 3584 3137 3096 
Q 3566 2609 3566 1747 
Q 3566 888 3137 398 
Q 2709 -91 1959 -91 
Q 1206 -91 779 398 
Q 353 888 353 1747 
Q 353 2609 779 3096 
Q 1206 3584 1959 3584 
z
" transform="scale(0.015625)"/>
      <path id="DejaVuSans-70" d="M 1159 525 
L 1159 -1331 
L 581 -1331 
L 581 3500 
L 1159 3500 
L 1159 2969 
Q 1341 3281 1617 3432 
Q 1894 3584 2278 3584 
Q 2916 3584 3314 3078 
Q 3713 2572 3713 1747 
Q 3713 922 3314 415 
Q 2916 -91 2278 -91 
Q 1894 -91 1617 61 
Q 1341 213 1159 525 
z
M 3116 1747 
Q 3116 2381 2855 2742 
Q 2594 3103 2138 3103 
Q 1681 3103 1420 2742 
Q 1159 2381 1159 1747 
Q 1159 1113 1420 752 
Q 1681 391 2138 391 
Q 2594 391 2855 752 
Q 3116 1113 3116 1747 
z
" transform="scale(0.015625)"/>
      <path id="DejaVuSans-75" d="M 544 1381 
L 544 3500 
L 1119 3500 
L 1119 1403 
Q 1119 906 1312 657 
Q 1506 409 1894 409 
Q 2359 409 2629 706 
Q 2900 1003 2900 1516 
L 2900 3500 
L 3475 3500 
L 3475 0 
L 2900 0 
L 2900 538 
Q 2691 219 2414 64 
Q 2138 -91 1772 -91 
Q 1169 -91 856 284 
Q 544 659 544 1381 
z
M 1991 3584 
L 1991 3584 
z
" transform="scale(0.015625)"/>
     </defs>
     <use xlink:href="#DejaVuSans-6f"/>
     <use xlink:href="#DejaVuSans-70" transform="translate(61.181641 0)"/>
     <use xlink:href="#DejaVuSans-74" transform="translate(124.658203 0)"/>
     <use xlink:href="#DejaVuSans-6f" transform="translate(163.867188 0)"/>
     <use xlink:href="#DejaVuSans-20" transform="translate(225.048828 0)"/>
     <use xlink:href="#DejaVuSans-69" transform="translate(256.835938 0)"/>
     <use xlink:href="#DejaVuSans-6e" transform="translate(284.619141 0)"/>
     <use xlink:href="#DejaVuSans-70" transform="translate(347.998047 0)"/>
     <use xlink:href="#DejaVuSans-75" transform="translate(411.474609 0)"/>
     <use xlink:href="#DejaVuSans-74" transform="translate(474.853516 0)"/>
     <use xlink:href="#DejaVuSans-20" transform="translate(514.0625 0)"/>
     <use xlink:href="#DejaVuSans-4c" transform="translate(545.849609 0)"/>
     <use xlink:href="#DejaVuSans-45" transform="translate(601.5625 0)"/>
     <use xlink:href="#DejaVuSans-44" transform="translate(664.746094 0)"/>
    </g>
    <!-- (quad-opto, 1 of 4) -->
    <g transform="translate(220.209375 210.156562) scale(0.1 -0.1)">
     <defs>
      <path id="DejaVuSans-71" d="M 947 1747 
Q 947 1113 1208 752 
Q 1469 391 1925 391 
Q 2381 391 2643 752 
Q 2906 1113 2906 1747 
Q 2906 2381 2643 2742 
Q 2381 3103 1925 3103 
Q 1469 3103 1208 2742 
Q 947 2381 947 1747 
z
M 2906 525 
Q 2725 213 2448 61 
Q 2172 -91 1784 -91 
Q 1150 -91 751 415 
Q 353 922 353 1747 
Q 353 2572 751 3078 
Q 1150 3584 1784 3584 
Q 2172 3584 2448 3432 
Q 2725 3281 2906 2969 
L 2906 3500 
L 3481 3500 
L 3481 -1331 
L 2906 -1331 
L 2906 525 
z
" transform="scale(0.015625)"/>
      <path id="DejaVuSans-61" d="M 2194 1759 
Q 1497 1759 1228 1600 
Q 959 1441 959 1056 
Q 959 750 1161 570 
Q 1363 391 1709 391 
Q 2188 391 2477 730 
Q 2766 1069 2766 1631 
L 2766 1759 
L 2194 1759 
z
M 3341 1997 
L 3341 0 
L 2766 0 
L 2766 531 
Q 2569 213 2275 61 
Q 1981 -91 1556 -91 
Q 1019 -91 701 211 
Q 384 513 384 1019 
Q 384 1609 779 1909 
Q 1175 2209 1959 2209 
L 2766 2209 
L 2766 2266 
Q 2766 2663 2505 2880 
Q 2244 3097 1772 3097 
Q 1472 3097 1187 3025 
Q 903 2953 641 2809 
L 641 3341 
Q 956 3463 1253 3523 
Q 1550 3584 1831 3584 
Q 2591 3584 2966 3190 
Q 3341 2797 3341 1997 
z
" transform="scale(0.015625)"/>
      <path id="DejaVuSans-64" d="M 2906 2969 
L 2906 4863 
L 3481 4863 
L 3481 0 
L 2906 0 
L 2906 525 
Q 2725 213 2448 61 
Q 2172 -91 1784 -91 
Q 1150 -91 751 415 
Q 353 922 353 1747 
Q 353 2572 751 3078 
Q 1150 3584 1784 3584 
Q 2172 3584 2448 3432 
Q 2725 3281 2906 2969 
z
M 947 1747 
Q 947 1113 1208 752 
Q 1469 391 1925 391 
Q 2381 391 2643 752 
Q 2906 1113 2906 1747 
Q 2906 2381 2643 2742 
Q 2381 3103 1925 3103 
Q 1469 3103 1208 2742 
Q 947 2381 947 1747 
z
" transform="scale(0.015625)"/>
      <path id="DejaVuSans-2d" d="M 313 2009 
L 1997 2009 
L 1997 1497 
L 313 1497 
L 313 2009 
z
" transform="scale(0.015625)"/>
      <path id="DejaVuSans-2c" d="M 750 794 
L 1409 794 
L 1409 256 
L 897 -744 
L 494 -744 
L 750 256 
L 750 794 
z
" transform="scale(0.015625)"/>
      <path id="DejaVuSans-31" d="M 794 531 
L 1825 531 
L 1825 4091 
L 703 3866 
L 703 4441 
L 1819 4666 
L 2450 4666 
L 2450 531 
L 3481 531 
L 3481 0 
L 794 0 
L 794 531 
z
" transform="scale(0.015625)"/>
      <path id="DejaVuSans-66" d="M 2375 4863 
L 2375 4384 
L 1825 4384 
Q 1516 4384 1395 4259 
Q 1275 4134 1275 3809 
L 1275 3500 
L 2222 3500 
L 2222 3053 
L 1275 3053 
L 1275 0 
L 697 0 
L 697 3053 
L 147 3053 
L 147 3500 
L 697 3500 
L 697 3744 
Q 697 4328 969 4595 
Q 1241 4863 1831 4863 
L 2375 4863 
z
" transform="scale(0.015625)"/>
      <path id="DejaVuSans-34" d="M 2419 4116 
L 825 1625 
L 2419 1625 
L 2419 4116 
z
M 2253 4666 
L 3047 4666 
L 3047 1625 
L 3713 1625 
L 3713 1100 
L 3047 1100 
L 3047 0 
L 2419 0 
L 2419 1100 
L 313 1100 
L 313 1709 
L 2253 4666 
z
" transform="scale(0.015625)"/>
     </defs>
     <use xlink:href="#DejaVuSans-28"/>
     <use xlink:href="#DejaVuSans-71" transform="translate(39.013672 0)"/>
     <use xlink:href="#DejaVuSans-75" transform="translate(102.490234 0)"/>
     <use xlink:href="#DejaVuSans-61" transform="translate(165.869141 0)"/>
     <use xlink:href="#DejaVuSans-64" transform="translate(227.148438 0)"/>
     <use xlink:href="#DejaVuSans-2d" transform="translate(290.625 0)"/>
     <use xlink:href="#DejaVuSans-6f" transform="translate(328.583984 0)"/>
     <use xlink:href="#DejaVuSans-70" transform="translate(389.765625 0)"/>
     <use xlink:href="#DejaVuSans-74" transform="translate(453.242188 0)"/>
     <use xlink:href="#DejaVuSans-6f" transform="translate(492.451172 0)"/>
     <use xlink:href="#DejaVuSans-2c" transform="translate(553.632812 0)"/>
     <use xlink:href="#DejaVuSans-20" transform="translate(585.419922 0)"/>
     <use xlink:href="#DejaVuSans-31" transform="translate(617.207031 0)"/>
     <use xlink:href="#DejaVuSans-20" transform="translate(680.830078 0)"/>
     <use xlink:href="#DejaVuSans-6f" transform="translate(712.617188 0)"/>
     <use xlink:href="#DejaVuSans-66" transform="translate(773.798828 0)"/>
     <use xlink:href="#DejaVuSans-20" transform="translate(809.003906 0)"/>
     <use xlink:href="#DejaVuSans-34" transform="translate(840.791016 0)"/>
     <use xlink:href="#DejaVuSans-29" transform="translate(904.414062 0)"/>
    </g>
   </g>
   <g id="text_4">
    <!-- DUT GND -->
    <g transform="translate(330.164062 174.600312) scale(0.1 -0.1)">
     <defs>
      <path id="DejaVuSans-47" d="M 3809 666 
L 3809 1919 
L 2778 1919 
L 2778 2438 
L 4434 2438 
L 4434 434 
Q 4069 175 3628 42 
Q 3188 -91 2688 -91 
Q 1594 -91 976 548 
Q 359 1188 359 2328 
Q 359 3472 976 4111 
Q 1594 4750 2688 4750 
Q 3144 4750 3555 4637 
Q 3966 4525 4313 4306 
L 4313 3634 
Q 3963 3931 3569 4081 
Q 3175 4231 2741 4231 
Q 1884 4231 1454 3753 
Q 1025 3275 1025 2328 
Q 1025 1384 1454 906 
Q 1884 428 2741 428 
Q 3075 428 3337 486 
Q 3600 544 3809 666 
z
" transform="scale(0.015625)"/>
      <path id="DejaVuSans-4e" d="M 628 4666 
L 1478 4666 
L 3547 763 
L 3547 4666 
L 4159 4666 
L 4159 0 
L 3309 0 
L 1241 3903 
L 1241 0 
L 628 0 
L 628 4666 
z
" transform="scale(0.015625)"/>
     </defs>
     <use xlink:href="#DejaVuSans-44"/>
     <use xlink:href="#DejaVuSans-55" transform="translate(77.001953 0)"/>
     <use xlink:href="#DejaVuSans-54" transform="translate(150.195312 0)"/>
     <use xlink:href="#DejaVuSans-20" transform="translate(211.279297 0)"/>
     <use xlink:href="#DejaVuSans-47" transform="translate(243.066406 0)"/>
     <use xlink:href="#DejaVuSans-4e" transform="translate(320.556641 0)"/>
     <use xlink:href="#DejaVuSans-44" transform="translate(395.361328 0)"/>
    </g>
   </g>
   <g id="text_5">
    <!-- Quad opto -->
    <g transform="translate(516.626094 252.678437) scale(0.1 -0.1)">
     <defs>
      <path id="DejaVuSans-51" d="M 2522 4238 
Q 1834 4238 1429 3725 
Q 1025 3213 1025 2328 
Q 1025 1447 1429 934 
Q 1834 422 2522 422 
Q 3209 422 3611 934 
Q 4013 1447 4013 2328 
Q 4013 3213 3611 3725 
Q 3209 4238 2522 4238 
z
M 3406 84 
L 4238 -825 
L 3475 -825 
L 2784 -78 
Q 2681 -84 2626 -87 
Q 2572 -91 2522 -91 
Q 1538 -91 948 567 
Q 359 1225 359 2328 
Q 359 3434 948 4092 
Q 1538 4750 2522 4750 
Q 3503 4750 4090 4092 
Q 4678 3434 4678 2328 
Q 4678 1516 4351 937 
Q 4025 359 3406 84 
z
" transform="scale(0.015625)"/>
     </defs>
     <use xlink:href="#DejaVuSans-51"/>
     <use xlink:href="#DejaVuSans-75" transform="translate(78.710938 0)"/>
     <use xlink:href="#DejaVuSans-61" transform="translate(142.089844 0)"/>
     <use xlink:href="#DejaVuSans-64" transform="translate(203.369141 0)"/>
     <use xlink:href="#DejaVuSans-20" transform="translate(266.845703 0)"/>
     <use xlink:href="#DejaVuSans-6f" transform="translate(298.632812 0)"/>
     <use xlink:href="#DejaVuSans-70" transform="translate(359.814453 0)"/>
     <use xlink:href="#DejaVuSans-74" transform="translate(423.291016 0)"/>
     <use xlink:href="#DejaVuSans-6f" transform="translate(462.5 0)"/>
    </g>
    <!-- (LTV-846 / -->
    <g transform="translate(517.960469 262.356562) scale(0.1 -0.1)">
     <defs>
      <path id="DejaVuSans-56" d="M 1831 0 
L 50 4666 
L 709 4666 
L 2188 738 
L 3669 4666 
L 4325 4666 
L 2547 0 
L 1831 0 
z
" transform="scale(0.015625)"/>
      <path id="DejaVuSans-38" d="M 2034 2216 
Q 1584 2216 1326 1975 
Q 1069 1734 1069 1313 
Q 1069 891 1326 650 
Q 1584 409 2034 409 
Q 2484 409 2743 651 
Q 3003 894 3003 1313 
Q 3003 1734 2745 1975 
Q 2488 2216 2034 2216 
z
M 1403 2484 
Q 997 2584 770 2862 
Q 544 3141 544 3541 
Q 544 4100 942 4425 
Q 1341 4750 2034 4750 
Q 2731 4750 3128 4425 
Q 3525 4100 3525 3541 
Q 3525 3141 3298 2862 
Q 3072 2584 2669 2484 
Q 3125 2378 3379 2068 
Q 3634 1759 3634 1313 
Q 3634 634 3220 271 
Q 2806 -91 2034 -91 
Q 1263 -91 848 271 
Q 434 634 434 1313 
Q 434 1759 690 2068 
Q 947 2378 1403 2484 
z
M 1172 3481 
Q 1172 3119 1398 2916 
Q 1625 2713 2034 2713 
Q 2441 2713 2670 2916 
Q 2900 3119 2900 3481 
Q 2900 3844 2670 4047 
Q 2441 4250 2034 4250 
Q 1625 4250 1398 4047 
Q 1172 3844 1172 3481 
z
" transform="scale(0.015625)"/>
      <path id="DejaVuSans-36" d="M 2113 2584 
Q 1688 2584 1439 2293 
Q 1191 2003 1191 1497 
Q 1191 994 1439 701 
Q 1688 409 2113 409 
Q 2538 409 2786 701 
Q 3034 994 3034 1497 
Q 3034 2003 2786 2293 
Q 2538 2584 2113 2584 
z
M 3366 4563 
L 3366 3988 
Q 3128 4100 2886 4159 
Q 2644 4219 2406 4219 
Q 1781 4219 1451 3797 
Q 1122 3375 1075 2522 
Q 1259 2794 1537 2939 
Q 1816 3084 2150 3084 
Q 2853 3084 3261 2657 
Q 3669 2231 3669 1497 
Q 3669 778 3244 343 
Q 2819 -91 2113 -91 
Q 1303 -91 875 529 
Q 447 1150 447 2328 
Q 447 3434 972 4092 
Q 1497 4750 2381 4750 
Q 2619 4750 2861 4703 
Q 3103 4656 3366 4563 
z
" transform="scale(0.015625)"/>
      <path id="DejaVuSans-2f" d="M 1625 4666 
L 2156 4666 
L 531 -594 
L 0 -594 
L 1625 4666 
z
" transform="scale(0.015625)"/>
     </defs>
     <use xlink:href="#DejaVuSans-28"/>
     <use xlink:href="#DejaVuSans-4c" transform="translate(39.013672 0)"/>
     <use xlink:href="#DejaVuSans-54" transform="translate(80.976562 0)"/>
     <use xlink:href="#DejaVuSans-56" transform="translate(142.060547 0)"/>
     <use xlink:href="#DejaVuSans-2d" transform="translate(204.59375 0)"/>
     <use xlink:href="#DejaVuSans-38" transform="translate(240.677734 0)"/>
     <use xlink:href="#DejaVuSans-34" transform="translate(304.300781 0)"/>
     <use xlink:href="#DejaVuSans-36" transform="translate(367.923828 0)"/>
     <use xlink:href="#DejaVuSans-20" transform="translate(431.546875 0)"/>
     <use xlink:href="#DejaVuSans-2f" transform="translate(463.333984 0)"/>
    </g>
    <!-- PS2501-4 / -->
    <g transform="translate(515.638594 272.034687) scale(0.1 -0.1)">
     <defs>
      <path id="DejaVuSans-50" d="M 1259 4147 
L 1259 2394 
L 2053 2394 
Q 2494 2394 2734 2622 
Q 2975 2850 2975 3272 
Q 2975 3691 2734 3919 
Q 2494 4147 2053 4147 
L 1259 4147 
z
M 628 4666 
L 2053 4666 
Q 2838 4666 3239 4311 
Q 3641 3956 3641 3272 
Q 3641 2581 3239 2228 
Q 2838 1875 2053 1875 
L 1259 1875 
L 1259 0 
L 628 0 
L 628 4666 
z
" transform="scale(0.015625)"/>
      <path id="DejaVuSans-53" d="M 3425 4513 
L 3425 3897 
Q 3066 4069 2747 4153 
Q 2428 4238 2131 4238 
Q 1616 4238 1336 4038 
Q 1056 3838 1056 3469 
Q 1056 3159 1242 3001 
Q 1428 2844 1947 2747 
L 2328 2669 
Q 3034 2534 3370 2195 
Q 3706 1856 3706 1288 
Q 3706 609 3251 259 
Q 2797 -91 1919 -91 
Q 1588 -91 1214 -16 
Q 841 59 441 206 
L 441 856 
Q 825 641 1194 531 
Q 1563 422 1919 422 
Q 2459 422 2753 634 
Q 3047 847 3047 1241 
Q 3047 1584 2836 1778 
Q 2625 1972 2144 2069 
L 1759 2144 
Q 1053 2284 737 2584 
Q 422 2884 422 3419 
Q 422 4038 858 4394 
Q 1294 4750 2059 4750 
Q 2388 4750 2728 4690 
Q 3069 4631 3425 4513 
z
" transform="scale(0.015625)"/>
      <path id="DejaVuSans-32" d="M 1228 531 
L 3431 531 
L 3431 0 
L 469 0 
L 469 531 
Q 828 903 1448 1529 
Q 2069 2156 2228 2338 
Q 2531 2678 2651 2914 
Q 2772 3150 2772 3378 
Q 2772 3750 2511 3984 
Q 2250 4219 1831 4219 
Q 1534 4219 1204 4116 
Q 875 4013 500 3803 
L 500 4441 
Q 881 4594 1212 4672 
Q 1544 4750 1819 4750 
Q 2544 4750 2975 4387 
Q 3406 4025 3406 3419 
Q 3406 3131 3298 2873 
Q 3191 2616 2906 2266 
Q 2828 2175 2409 1742 
Q 1991 1309 1228 531 
z
" transform="scale(0.015625)"/>
      <path id="DejaVuSans-35" d="M 691 4666 
L 3169 4666 
L 3169 4134 
L 1269 4134 
L 1269 2991 
Q 1406 3038 1543 3061 
Q 1681 3084 1819 3084 
Q 2600 3084 3056 2656 
Q 3513 2228 3513 1497 
Q 3513 744 3044 326 
Q 2575 -91 1722 -91 
Q 1428 -91 1123 -41 
Q 819 9 494 109 
L 494 744 
Q 775 591 1075 516 
Q 1375 441 1709 441 
Q 2250 441 2565 725 
Q 2881 1009 2881 1497 
Q 2881 1984 2565 2268 
Q 2250 2553 1709 2553 
Q 1456 2553 1204 2497 
Q 953 2441 691 2322 
L 691 4666 
z
" transform="scale(0.015625)"/>
      <path id="DejaVuSans-30" d="M 2034 4250 
Q 1547 4250 1301 3770 
Q 1056 3291 1056 2328 
Q 1056 1369 1301 889 
Q 1547 409 2034 409 
Q 2525 409 2770 889 
Q 3016 1369 3016 2328 
Q 3016 3291 2770 3770 
Q 2525 4250 2034 4250 
z
M 2034 4750 
Q 2819 4750 3233 4129 
Q 3647 3509 3647 2328 
Q 3647 1150 3233 529 
Q 2819 -91 2034 -91 
Q 1250 -91 836 529 
Q 422 1150 422 2328 
Q 422 3509 836 4129 
Q 1250 4750 2034 4750 
z
" transform="scale(0.015625)"/>
     </defs>
     <use xlink:href="#DejaVuSans-50"/>
     <use xlink:href="#DejaVuSans-53" transform="translate(60.302734 0)"/>
     <use xlink:href="#DejaVuSans-32" transform="translate(123.779297 0)"/>
     <use xlink:href="#DejaVuSans-35" transform="translate(187.402344 0)"/>
     <use xlink:href="#DejaVuSans-30" transform="translate(251.025391 0)"/>
     <use xlink:href="#DejaVuSans-31" transform="translate(314.648438 0)"/>
     <use xlink:href="#DejaVuSans-2d" transform="translate(378.271484 0)"/>
     <use xlink:href="#DejaVuSans-34" transform="translate(414.355469 0)"/>
     <use xlink:href="#DejaVuSans-20" transform="translate(477.978516 0)"/>
     <use xlink:href="#DejaVuSans-2f" transform="translate(509.765625 0)"/>
    </g>
    <!-- TLP281-4) -->
    <g transform="translate(517.476875 281.712812) scale(0.1 -0.1)">
     <use xlink:href="#DejaVuSans-54"/>
     <use xlink:href="#DejaVuSans-4c" transform="translate(61.083984 0)"/>
     <use xlink:href="#DejaVuSans-50" transform="translate(116.796875 0)"/>
     <use xlink:href="#DejaVuSans-32" transform="translate(177.099609 0)"/>
     <use xlink:href="#DejaVuSans-38" transform="translate(240.722656 0)"/>
     <use xlink:href="#DejaVuSans-31" transform="translate(304.345703 0)"/>
     <use xlink:href="#DejaVuSans-2d" transform="translate(367.96875 0)"/>
     <use xlink:href="#DejaVuSans-34" transform="translate(404.052734 0)"/>
     <use xlink:href="#DejaVuSans-29" transform="translate(467.675781 0)"/>
    </g>
   </g>
   <g id="text_6">
    <!-- 10 kΩ -->
    <g transform="translate(607.373281 104.520312) scale(0.1 -0.1)">
     <defs>
      <path id="DejaVuSans-6b" d="M 581 4863 
L 1159 4863 
L 1159 1991 
L 2875 3500 
L 3609 3500 
L 1753 1863 
L 3688 0 
L 2938 0 
L 1159 1709 
L 1159 0 
L 581 0 
L 581 4863 
z
" transform="scale(0.015625)"/>
      <path id="DejaVuSans-3a9" d="M 4647 556 
L 4647 0 
L 2772 0 
L 2772 556 
Q 3325 859 3634 1378 
Q 3944 1897 3944 2528 
Q 3944 3278 3531 3731 
Q 3119 4184 2444 4184 
Q 1769 4184 1355 3729 
Q 941 3275 941 2528 
Q 941 1897 1250 1378 
Q 1563 859 2119 556 
L 2119 0 
L 244 0 
L 244 556 
L 1241 556 
Q 747 991 519 1456 
Q 294 1922 294 2497 
Q 294 3491 894 4106 
Q 1491 4722 2444 4722 
Q 3391 4722 3994 4106 
Q 4594 3494 4594 2528 
Q 4594 1922 4372 1459 
Q 4150 997 3647 556 
L 4647 556 
z
" transform="scale(0.015625)"/>
     </defs>
     <use xlink:href="#DejaVuSans-31"/>
     <use xlink:href="#DejaVuSans-30" transform="translate(63.623047 0)"/>
     <use xlink:href="#DejaVuSans-20" transform="translate(127.246094 0)"/>
     <use xlink:href="#DejaVuSans-6b" transform="translate(159.033203 0)"/>
     <use xlink:href="#DejaVuSans-3a9" transform="translate(216.943359 0)"/>
    </g>
   </g>
   <g id="text_7">
    <!-- +3V3 -->
    <g transform="translate(608.068594 90.120312) scale(0.1 -0.1)">
     <defs>
      <path id="DejaVuSans-2b" d="M 2944 4013 
L 2944 2272 
L 4684 2272 
L 4684 1741 
L 2944 1741 
L 2944 0 
L 2419 0 
L 2419 1741 
L 678 1741 
L 678 2272 
L 2419 2272 
L 2419 4013 
L 2944 4013 
z
" transform="scale(0.015625)"/>
      <path id="DejaVuSans-33" d="M 2597 2516 
Q 3050 2419 3304 2112 
Q 3559 1806 3559 1356 
Q 3559 666 3084 287 
Q 2609 -91 1734 -91 
Q 1441 -91 1130 -33 
Q 819 25 488 141 
L 488 750 
Q 750 597 1062 519 
Q 1375 441 1716 441 
Q 2309 441 2620 675 
Q 2931 909 2931 1356 
Q 2931 1769 2642 2001 
Q 2353 2234 1838 2234 
L 1294 2234 
L 1294 2753 
L 1863 2753 
Q 2328 2753 2575 2939 
Q 2822 3125 2822 3475 
Q 2822 3834 2567 4026 
Q 2313 4219 1838 4219 
Q 1578 4219 1281 4162 
Q 984 4106 628 3988 
L 628 4550 
Q 988 4650 1302 4700 
Q 1616 4750 1894 4750 
Q 2613 4750 3031 4423 
Q 3450 4097 3450 3541 
Q 3450 3153 3228 2886 
Q 3006 2619 2597 2516 
z
" transform="scale(0.015625)"/>
     </defs>
     <use xlink:href="#DejaVuSans-2b"/>
     <use xlink:href="#DejaVuSans-33" transform="translate(83.789062 0)"/>
     <use xlink:href="#DejaVuSans-56" transform="translate(147.412109 0)"/>
     <use xlink:href="#DejaVuSans-33" transform="translate(215.820312 0)"/>
    </g>
   </g>
   <g id="text_8">
    <!-- rig GND -->
    <g transform="translate(602.368594 226.680312) scale(0.1 -0.1)">
     <defs>
      <path id="DejaVuSans-72" d="M 2631 2963 
Q 2534 3019 2420 3045 
Q 2306 3072 2169 3072 
Q 1681 3072 1420 2755 
Q 1159 2438 1159 1844 
L 1159 0 
L 581 0 
L 581 3500 
L 1159 3500 
L 1159 2956 
Q 1341 3275 1631 3429 
Q 1922 3584 2338 3584 
Q 2397 3584 2469 3576 
Q 2541 3569 2628 3553 
L 2631 2963 
z
" transform="scale(0.015625)"/>
     </defs>
     <use xlink:href="#DejaVuSans-72"/>
     <use xlink:href="#DejaVuSans-69" transform="translate(41.113281 0)"/>
     <use xlink:href="#DejaVuSans-67" transform="translate(68.896484 0)"/>
     <use xlink:href="#DejaVuSans-20" transform="translate(132.373047 0)"/>
     <use xlink:href="#DejaVuSans-47" transform="translate(164.160156 0)"/>
     <use xlink:href="#DejaVuSans-4e" transform="translate(241.650391 0)"/>
     <use xlink:href="#DejaVuSans-44" transform="translate(316.455078 0)"/>
    </g>
   </g>
   <g id="text_9">
    <!-- optical coupling -->
    <g transform="translate(360.034375 208.122187) scale(0.1 -0.1)">
     <defs>
      <path id="DejaVuSans-63" d="M 3122 3366 
L 3122 2828 
Q 2878 2963 2633 3030 
Q 2388 3097 2138 3097 
Q 1578 3097 1268 2742 
Q 959 2388 959 1747 
Q 959 1106 1268 751 
Q 1578 397 2138 397 
Q 2388 397 2633 464 
Q 2878 531 3122 666 
L 3122 134 
Q 2881 22 2623 -34 
Q 2366 -91 2075 -91 
Q 1284 -91 818 406 
Q 353 903 353 1747 
Q 353 2603 823 3093 
Q 1294 3584 2113 3584 
Q 2378 3584 2631 3529 
Q 2884 3475 3122 3366 
z
" transform="scale(0.015625)"/>
     </defs>
     <use xlink:href="#DejaVuSans-6f"/>
     <use xlink:href="#DejaVuSans-70" transform="translate(61.181641 0)"/>
     <use xlink:href="#DejaVuSans-74" transform="translate(124.658203 0)"/>
     <use xlink:href="#DejaVuSans-69" transform="translate(163.867188 0)"/>
     <use xlink:href="#DejaVuSans-63" transform="translate(191.650391 0)"/>
     <use xlink:href="#DejaVuSans-61" transform="translate(246.630859 0)"/>
     <use xlink:href="#DejaVuSans-6c" transform="translate(307.910156 0)"/>
     <use xlink:href="#DejaVuSans-20" transform="translate(335.693359 0)"/>
     <use xlink:href="#DejaVuSans-63" transform="translate(367.480469 0)"/>
     <use xlink:href="#DejaVuSans-6f" transform="translate(422.460938 0)"/>
     <use xlink:href="#DejaVuSans-75" transform="translate(483.642578 0)"/>
     <use xlink:href="#DejaVuSans-70" transform="translate(547.021484 0)"/>
     <use xlink:href="#DejaVuSans-6c" transform="translate(610.498047 0)"/>
     <use xlink:href="#DejaVuSans-69" transform="translate(638.28125 0)"/>
     <use xlink:href="#DejaVuSans-6e" transform="translate(666.064453 0)"/>
     <use xlink:href="#DejaVuSans-67" transform="translate(729.443359 0)"/>
    </g>
    <!-- (same package) -->
    <g transform="translate(359.464844 217.800312) scale(0.1 -0.1)">
     <defs>
      <path id="DejaVuSans-6d" d="M 3328 2828 
Q 3544 3216 3844 3400 
Q 4144 3584 4550 3584 
Q 5097 3584 5394 3201 
Q 5691 2819 5691 2113 
L 5691 0 
L 5113 0 
L 5113 2094 
Q 5113 2597 4934 2840 
Q 4756 3084 4391 3084 
Q 3944 3084 3684 2787 
Q 3425 2491 3425 1978 
L 3425 0 
L 2847 0 
L 2847 2094 
Q 2847 2600 2669 2842 
Q 2491 3084 2119 3084 
Q 1678 3084 1418 2786 
Q 1159 2488 1159 1978 
L 1159 0 
L 581 0 
L 581 3500 
L 1159 3500 
L 1159 2956 
Q 1356 3278 1631 3431 
Q 1906 3584 2284 3584 
Q 2666 3584 2933 3390 
Q 3200 3197 3328 2828 
z
" transform="scale(0.015625)"/>
     </defs>
     <use xlink:href="#DejaVuSans-28"/>
     <use xlink:href="#DejaVuSans-73" transform="translate(39.013672 0)"/>
     <use xlink:href="#DejaVuSans-61" transform="translate(91.113281 0)"/>
     <use xlink:href="#DejaVuSans-6d" transform="translate(152.392578 0)"/>
     <use xlink:href="#DejaVuSans-65" transform="translate(249.804688 0)"/>
     <use xlink:href="#DejaVuSans-20" transform="translate(311.328125 0)"/>
     <use xlink:href="#DejaVuSans-70" transform="translate(343.115234 0)"/>
     <use xlink:href="#DejaVuSans-61" transform="translate(406.591797 0)"/>
     <use xlink:href="#DejaVuSans-63" transform="translate(467.871094 0)"/>
     <use xlink:href="#DejaVuSans-6b" transform="translate(522.851562 0)"/>
     <use xlink:href="#DejaVuSans-61" transform="translate(579.011719 0)"/>
     <use xlink:href="#DejaVuSans-67" transform="translate(640.291016 0)"/>
     <use xlink:href="#DejaVuSans-65" transform="translate(703.767578 0)"/>
     <use xlink:href="#DejaVuSans-29" transform="translate(765.291016 0)"/>
    </g>
   </g>
   <g id="text_10">
    <!-- Opto channel — one of 9 (default: opto LED in SERIES with DUT LED, sharing R_DUT; parallel-with-its-own-R is the fallback for high-Vf visible LEDs) -->
    <g transform="translate(8.013281 12.322187) scale(0.1 -0.1)">
     <defs>
      <path id="DejaVuSans-4f" d="M 2522 4238 
Q 1834 4238 1429 3725 
Q 1025 3213 1025 2328 
Q 1025 1447 1429 934 
Q 1834 422 2522 422 
Q 3209 422 3611 934 
Q 4013 1447 4013 2328 
Q 4013 3213 3611 3725 
Q 3209 4238 2522 4238 
z
M 2522 4750 
Q 3503 4750 4090 4092 
Q 4678 3434 4678 2328 
Q 4678 1225 4090 567 
Q 3503 -91 2522 -91 
Q 1538 -91 948 565 
Q 359 1222 359 2328 
Q 359 3434 948 4092 
Q 1538 4750 2522 4750 
z
" transform="scale(0.015625)"/>
      <path id="DejaVuSans-68" d="M 3513 2113 
L 3513 0 
L 2938 0 
L 2938 2094 
Q 2938 2591 2744 2837 
Q 2550 3084 2163 3084 
Q 1697 3084 1428 2787 
Q 1159 2491 1159 1978 
L 1159 0 
L 581 0 
L 581 4863 
L 1159 4863 
L 1159 2956 
Q 1366 3272 1645 3428 
Q 1925 3584 2291 3584 
Q 2894 3584 3203 3211 
Q 3513 2838 3513 2113 
z
" transform="scale(0.015625)"/>
      <path id="DejaVuSans-2014" d="M 313 1978 
L 6088 1978 
L 6088 1528 
L 313 1528 
L 313 1978 
z
" transform="scale(0.015625)"/>
      <path id="DejaVuSans-39" d="M 703 97 
L 703 672 
Q 941 559 1184 500 
Q 1428 441 1663 441 
Q 2288 441 2617 861 
Q 2947 1281 2994 2138 
Q 2813 1869 2534 1725 
Q 2256 1581 1919 1581 
Q 1219 1581 811 2004 
Q 403 2428 403 3163 
Q 403 3881 828 4315 
Q 1253 4750 1959 4750 
Q 2769 4750 3195 4129 
Q 3622 3509 3622 2328 
Q 3622 1225 3098 567 
Q 2575 -91 1691 -91 
Q 1453 -91 1209 -44 
Q 966 3 703 97 
z
M 1959 2075 
Q 2384 2075 2632 2365 
Q 2881 2656 2881 3163 
Q 2881 3666 2632 3958 
Q 2384 4250 1959 4250 
Q 1534 4250 1286 3958 
Q 1038 3666 1038 3163 
Q 1038 2656 1286 2365 
Q 1534 2075 1959 2075 
z
" transform="scale(0.015625)"/>
      <path id="DejaVuSans-3a" d="M 750 794 
L 1409 794 
L 1409 0 
L 750 0 
L 750 794 
z
M 750 3309 
L 1409 3309 
L 1409 2516 
L 750 2516 
L 750 3309 
z
" transform="scale(0.015625)"/>
      <path id="DejaVuSans-49" d="M 628 4666 
L 1259 4666 
L 1259 0 
L 628 0 
L 628 4666 
z
" transform="scale(0.015625)"/>
      <path id="DejaVuSans-77" d="M 269 3500 
L 844 3500 
L 1563 769 
L 2278 3500 
L 2956 3500 
L 3675 769 
L 4391 3500 
L 4966 3500 
L 4050 0 
L 3372 0 
L 2619 2869 
L 1863 0 
L 1184 0 
L 269 3500 
z
" transform="scale(0.015625)"/>
      <path id="DejaVuSans-3b" d="M 750 3309 
L 1409 3309 
L 1409 2516 
L 750 2516 
L 750 3309 
z
M 750 794 
L 1409 794 
L 1409 256 
L 897 -744 
L 494 -744 
L 750 256 
L 750 794 
z
" transform="scale(0.015625)"/>
     </defs>
     <use xlink:href="#DejaVuSans-4f"/>
     <use xlink:href="#DejaVuSans-70" transform="translate(78.710938 0)"/>
     <use xlink:href="#DejaVuSans-74" transform="translate(142.1875 0)"/>
     <use xlink:href="#DejaVuSans-6f" transform="translate(181.396484 0)"/>
     <use xlink:href="#DejaVuSans-20" transform="translate(242.578125 0)"/>
     <use xlink:href="#DejaVuSans-63" transform="translate(274.365234 0)"/>
     <use xlink:href="#DejaVuSans-68" transform="translate(329.345703 0)"/>
     <use xlink:href="#DejaVuSans-61" transform="translate(392.724609 0)"/>
     <use xlink:href="#DejaVuSans-6e" transform="translate(454.003906 0)"/>
     <use xlink:href="#DejaVuSans-6e" transform="translate(517.382812 0)"/>
     <use xlink:href="#DejaVuSans-65" transform="translate(580.761719 0)"/>
     <use xlink:href="#DejaVuSans-6c" transform="translate(642.285156 0)"/>
     <use xlink:href="#DejaVuSans-20" transform="translate(670.068359 0)"/>
     <use xlink:href="#DejaVuSans-2014" transform="translate(701.855469 0)"/>
     <use xlink:href="#DejaVuSans-20" transform="translate(801.855469 0)"/>
     <use xlink:href="#DejaVuSans-6f" transform="translate(833.642578 0)"/>
     <use xlink:href="#DejaVuSans-6e" transform="translate(894.824219 0)"/>
     <use xlink:href="#DejaVuSans-65" transform="translate(958.203125 0)"/>
     <use xlink:href="#DejaVuSans-20" transform="translate(1019.726562 0)"/>
     <use xlink:href="#DejaVuSans-6f" transform="translate(1051.513672 0)"/>
     <use xlink:href="#DejaVuSans-66" transform="translate(1112.695312 0)"/>
     <use xlink:href="#DejaVuSans-20" transform="translate(1147.900391 0)"/>
     <use xlink:href="#DejaVuSans-39" transform="translate(1179.6875 0)"/>
     <use xlink:href="#DejaVuSans-20" transform="translate(1243.310547 0)"/>
     <use xlink:href="#DejaVuSans-28" transform="translate(1275.097656 0)"/>
     <use xlink:href="#DejaVuSans-64" transform="translate(1314.111328 0)"/>
     <use xlink:href="#DejaVuSans-65" transform="translate(1377.587891 0)"/>
     <use xlink:href="#DejaVuSans-66" transform="translate(1439.111328 0)"/>
     <use xlink:href="#DejaVuSans-61" transform="translate(1474.316406 0)"/>
     <use xlink:href="#DejaVuSans-75" transform="translate(1535.595703 0)"/>
     <use xlink:href="#DejaVuSans-6c" transform="translate(1598.974609 0)"/>
     <use xlink:href="#DejaVuSans-74" transform="translate(1626.757812 0)"/>
     <use xlink:href="#DejaVuSans-3a" transform="translate(1665.966797 0)"/>
     <use xlink:href="#DejaVuSans-20" transform="translate(1699.658203 0)"/>
     <use xlink:href="#DejaVuSans-6f" transform="translate(1731.445312 0)"/>
     <use xlink:href="#DejaVuSans-70" transform="translate(1792.626953 0)"/>
     <use xlink:href="#DejaVuSans-74" transform="translate(1856.103516 0)"/>
     <use xlink:href="#DejaVuSans-6f" transform="translate(1895.3125 0)"/>
     <use xlink:href="#DejaVuSans-20" transform="translate(1956.494141 0)"/>
     <use xlink:href="#DejaVuSans-4c" transform="translate(1988.28125 0)"/>
     <use xlink:href="#DejaVuSans-45" transform="translate(2043.994141 0)"/>
     <use xlink:href="#DejaVuSans-44" transform="translate(2107.177734 0)"/>
     <use xlink:href="#DejaVuSans-20" transform="translate(2184.179688 0)"/>
     <use xlink:href="#DejaVuSans-69" transform="translate(2215.966797 0)"/>
     <use xlink:href="#DejaVuSans-6e" transform="translate(2243.75 0)"/>
     <use xlink:href="#DejaVuSans-20" transform="translate(2307.128906 0)"/>
     <use xlink:href="#DejaVuSans-53" transform="translate(2338.916016 0)"/>
     <use xlink:href="#DejaVuSans-45" transform="translate(2402.392578 0)"/>
     <use xlink:href="#DejaVuSans-52" transform="translate(2465.576172 0)"/>
     <use xlink:href="#DejaVuSans-49" transform="translate(2535.058594 0)"/>
     <use xlink:href="#DejaVuSans-45" transform="translate(2564.550781 0)"/>
     <use xlink:href="#DejaVuSans-53" transform="translate(2627.734375 0)"/>
     <use xlink:href="#DejaVuSans-20" transform="translate(2691.210938 0)"/>
     <use xlink:href="#DejaVuSans-77" transform="translate(2722.998047 0)"/>
     <use xlink:href="#DejaVuSans-69" transform="translate(2804.785156 0)"/>
     <use xlink:href="#DejaVuSans-74" transform="translate(2832.568359 0)"/>
     <use xlink:href="#DejaVuSans-68" transform="translate(2871.777344 0)"/>
     <use xlink:href="#DejaVuSans-20" transform="translate(2935.15625 0)"/>
     <use xlink:href="#DejaVuSans-44" transform="translate(2966.943359 0)"/>
     <use xlink:href="#DejaVuSans-55" transform="translate(3043.945312 0)"/>
     <use xlink:href="#DejaVuSans-54" transform="translate(3117.138672 0)"/>
     <use xlink:href="#DejaVuSans-20" transform="translate(3178.222656 0)"/>
     <use xlink:href="#DejaVuSans-4c" transform="translate(3210.009766 0)"/>
     <use xlink:href="#DejaVuSans-45" transform="translate(3265.722656 0)"/>
     <use xlink:href="#DejaVuSans-44" transform="translate(3328.90625 0)"/>
     <use xlink:href="#DejaVuSans-2c" transform="translate(3405.908203 0)"/>
     <use xlink:href="#DejaVuSans-20" transform="translate(3437.695312 0)"/>
     <use xlink:href="#DejaVuSans-73" transform="translate(3469.482422 0)"/>
     <use xlink:href="#DejaVuSans-68" transform="translate(3521.582031 0)"/>
     <use xlink:href="#DejaVuSans-61" transform="translate(3584.960938 0)"/>
     <use xlink:href="#DejaVuSans-72" transform="translate(3646.240234 0)"/>
     <use xlink:href="#DejaVuSans-69" transform="translate(3687.353516 0)"/>
     <use xlink:href="#DejaVuSans-6e" transform="translate(3715.136719 0)"/>
     <use xlink:href="#DejaVuSans-67" transform="translate(3778.515625 0)"/>
     <use xlink:href="#DejaVuSans-20" transform="translate(3841.992188 0)"/>
     <use xlink:href="#DejaVuSans-52" transform="translate(3873.779297 0)"/>
     <use xlink:href="#DejaVuSans-5f" transform="translate(3943.261719 0)"/>
     <use xlink:href="#DejaVuSans-44" transform="translate(3993.261719 0)"/>
     <use xlink:href="#DejaVuSans-55" transform="translate(4070.263672 0)"/>
     <use xlink:href="#DejaVuSans-54" transform="translate(4143.457031 0)"/>
     <use xlink:href="#DejaVuSans-3b" transform="translate(4204.541016 0)"/>
     <use xlink:href="#DejaVuSans-20" transform="translate(4238.232422 0)"/>
     <use xlink:href="#DejaVuSans-70" transform="translate(4270.019531 0)"/>
     <use xlink:href="#DejaVuSans-61" transform="translate(4333.496094 0)"/>
     <use xlink:href="#DejaVuSans-72" transform="translate(4394.775391 0)"/>
     <use xlink:href="#DejaVuSans-61" transform="translate(4435.888672 0)"/>
     <use xlink:href="#DejaVuSans-6c" transform="translate(4497.167969 0)"/>
     <use xlink:href="#DejaVuSans-6c" transform="translate(4524.951172 0)"/>
     <use xlink:href="#DejaVuSans-65" transform="translate(4552.734375 0)"/>
     <use xlink:href="#DejaVuSans-6c" transform="translate(4614.257812 0)"/>
     <use xlink:href="#DejaVuSans-2d" transform="translate(4642.041016 0)"/>
     <use xlink:href="#DejaVuSans-77" transform="translate(4678.125 0)"/>
     <use xlink:href="#DejaVuSans-69" transform="translate(4759.912109 0)"/>
     <use xlink:href="#DejaVuSans-74" transform="translate(4787.695312 0)"/>
     <use xlink:href="#DejaVuSans-68" transform="translate(4826.904297 0)"/>
     <use xlink:href="#DejaVuSans-2d" transform="translate(4890.283203 0)"/>
     <use xlink:href="#DejaVuSans-69" transform="translate(4926.367188 0)"/>
     <use xlink:href="#DejaVuSans-74" transform="translate(4954.150391 0)"/>
     <use xlink:href="#DejaVuSans-73" transform="translate(4993.359375 0)"/>
     <use xlink:href="#DejaVuSans-2d" transform="translate(5045.458984 0)"/>
     <use xlink:href="#DejaVuSans-6f" transform="translate(5083.417969 0)"/>
     <use xlink:href="#DejaVuSans-77" transform="translate(5144.599609 0)"/>
     <use xlink:href="#DejaVuSans-6e" transform="translate(5226.386719 0)"/>
     <use xlink:href="#DejaVuSans-2d" transform="translate(5289.765625 0)"/>
     <use xlink:href="#DejaVuSans-52" transform="translate(5325.849609 0)"/>
     <use xlink:href="#DejaVuSans-20" transform="translate(5395.332031 0)"/>
     <use xlink:href="#DejaVuSans-69" transform="translate(5427.119141 0)"/>
     <use xlink:href="#DejaVuSans-73" transform="translate(5454.902344 0)"/>
     <use xlink:href="#DejaVuSans-20" transform="translate(5507.001953 0)"/>
     <use xlink:href="#DejaVuSans-74" transform="translate(5538.789062 0)"/>
     <use xlink:href="#DejaVuSans-68" transform="translate(5577.998047 0)"/>
     <use xlink:href="#DejaVuSans-65" transform="translate(5641.376953 0)"/>
     <use xlink:href="#DejaVuSans-20" transform="translate(5702.900391 0)"/>
     <use xlink:href="#DejaVuSans-66" transform="translate(5734.6875 0)"/>
     <use xlink:href="#DejaVuSans-61" transform="translate(5769.892578 0)"/>
     <use xlink:href="#DejaVuSans-6c" transform="translate(5831.171875 0)"/>
     <use xlink:href="#DejaVuSans-6c" transform="translate(5858.955078 0)"/>
     <use xlink:href="#DejaVuSans-62" transform="translate(5886.738281 0)"/>
     <use xlink:href="#DejaVuSans-61" transform="translate(5950.214844 0)"/>
     <use xlink:href="#DejaVuSans-63" transform="translate(6011.494141 0)"/>
     <use xlink:href="#DejaVuSans-6b" transform="translate(6066.474609 0)"/>
     <use xlink:href="#DejaVuSans-20" transform="translate(6124.384766 0)"/>
     <use xlink:href="#DejaVuSans-66" transform="translate(6156.171875 0)"/>
     <use xlink:href="#DejaVuSans-6f" transform="translate(6191.376953 0)"/>
     <use xlink:href="#DejaVuSans-72" transform="translate(6252.558594 0)"/>
     <use xlink:href="#DejaVuSans-20" transform="translate(6293.671875 0)"/>
     <use xlink:href="#DejaVuSans-68" transform="translate(6325.458984 0)"/>
     <use xlink:href="#DejaVuSans-69" transform="translate(6388.837891 0)"/>
     <use xlink:href="#DejaVuSans-67" transform="translate(6416.621094 0)"/>
     <use xlink:href="#DejaVuSans-68" transform="translate(6480.097656 0)"/>
     <use xlink:href="#DejaVuSans-2d" transform="translate(6543.476562 0)"/>
     <use xlink:href="#DejaVuSans-56" transform="translate(6573.685547 0)"/>
     <use xlink:href="#DejaVuSans-66" transform="translate(6642.09375 0)"/>
     <use xlink:href="#DejaVuSans-20" transform="translate(6677.298828 0)"/>
     <use xlink:href="#DejaVuSans-76" transform="translate(6709.085938 0)"/>
     <use xlink:href="#DejaVuSans-69" transform="translate(6768.265625 0)"/>
     <use xlink:href="#DejaVuSans-73" transform="translate(6796.048828 0)"/>
     <use xlink:href="#DejaVuSans-69" transform="translate(6848.148438 0)"/>
     <use xlink:href="#DejaVuSans-62" transform="translate(6875.931641 0)"/>
     <use xlink:href="#DejaVuSans-6c" transform="translate(6939.408203 0)"/>
     <use xlink:href="#DejaVuSans-65" transform="translate(6967.191406 0)"/>
     <use xlink:href="#DejaVuSans-20" transform="translate(7028.714844 0)"/>
     <use xlink:href="#DejaVuSans-4c" transform="translate(7060.501953 0)"/>
     <use xlink:href="#DejaVuSans-45" transform="translate(7116.214844 0)"/>
     <use xlink:href="#DejaVuSans-44" transform="translate(7179.398438 0)"/>
     <use xlink:href="#DejaVuSans-73" transform="translate(7256.400391 0)"/>
     <use xlink:href="#DejaVuSans-29" transform="translate(7308.5 0)"/>
    </g>
   </g>
   <g id="patch_13">
    <path d="M 62.18125 182.98 
C 62.897298 182.98 63.584116 182.695511 64.090438 182.189188 
C 64.596761 181.682866 64.88125 180.996048 64.88125 180.28 
C 64.88125 179.563952 64.596761 178.877134 64.090438 178.370812 
C 63.584116 177.864489 62.897298 177.58 62.18125 177.58 
C 61.465202 177.58 60.778384 177.864489 60.272062 178.370812 
C 59.765739 178.877134 59.48125 179.563952 59.48125 180.28 
C 59.48125 180.996048 59.765739 181.682866 60.272062 182.189188 
C 60.778384 182.695511 61.465202 182.98 62.18125 182.98 
z
" clip-path="url(#pfc8dd7d76c)" style="fill: #ffffff; stroke: #000000; stroke-width: 2; stroke-linejoin: miter"/>
   </g>
   <g id="text_11">
    <!-- DUT GPIO -->
    <g transform="translate(6.976562 178.200312) scale(0.1 -0.1)">
     <use xlink:href="#DejaVuSans-44"/>
     <use xlink:href="#DejaVuSans-55" transform="translate(77.001953 0)"/>
     <use xlink:href="#DejaVuSans-54" transform="translate(150.195312 0)"/>
     <use xlink:href="#DejaVuSans-20" transform="translate(211.279297 0)"/>
     <use xlink:href="#DejaVuSans-47" transform="translate(243.066406 0)"/>
     <use xlink:href="#DejaVuSans-50" transform="translate(320.556641 0)"/>
     <use xlink:href="#DejaVuSans-49" transform="translate(380.859375 0)"/>
     <use xlink:href="#DejaVuSans-4f" transform="translate(410.351562 0)"/>
    </g>
    <!-- (LED drive) -->
    <g transform="translate(0 187.878437) scale(0.1 -0.1)">
     <use xlink:href="#DejaVuSans-28"/>
     <use xlink:href="#DejaVuSans-4c" transform="translate(39.013672 0)"/>
     <use xlink:href="#DejaVuSans-45" transform="translate(94.726562 0)"/>
     <use xlink:href="#DejaVuSans-44" transform="translate(157.910156 0)"/>
     <use xlink:href="#DejaVuSans-20" transform="translate(234.912109 0)"/>
     <use xlink:href="#DejaVuSans-64" transform="translate(266.699219 0)"/>
     <use xlink:href="#DejaVuSans-72" transform="translate(330.175781 0)"/>
     <use xlink:href="#DejaVuSans-69" transform="translate(371.289062 0)"/>
     <use xlink:href="#DejaVuSans-76" transform="translate(399.072266 0)"/>
     <use xlink:href="#DejaVuSans-65" transform="translate(458.251953 0)"/>
     <use xlink:href="#DejaVuSans-29" transform="translate(519.775391 0)"/>
    </g>
   </g>
   <g id="patch_14">
    <path d="M 299.78125 182.98 
C 300.497298 182.98 301.184116 182.695511 301.690438 182.189188 
C 302.196761 181.682866 302.48125 180.996048 302.48125 180.28 
C 302.48125 179.563952 302.196761 178.877134 301.690438 178.370812 
C 301.184116 177.864489 300.497298 177.58 299.78125 177.58 
C 299.065202 177.58 298.378384 177.864489 297.872062 178.370812 
C 297.365739 178.877134 297.08125 179.563952 297.08125 180.28 
C 297.08125 180.996048 297.365739 181.682866 297.872062 182.189188 
C 298.378384 182.695511 299.065202 182.98 299.78125 182.98 
z
" clip-path="url(#pfc8dd7d76c)" style="stroke: #000000; stroke-width: 2; stroke-linejoin: miter"/>
   </g>
   <g id="patch_15">
    <path d="M 622.04125 184.9 
C 622.757298 184.9 623.444116 184.615511 623.950438 184.109188 
C 624.456761 183.602866 624.74125 182.916048 624.74125 182.2 
C 624.74125 181.483952 624.456761 180.797134 623.950438 180.290812 
C 623.444116 179.784489 622.757298 179.5 622.04125 179.5 
C 621.325202 179.5 620.638384 179.784489 620.132062 180.290812 
C 619.625739 180.797134 619.34125 181.483952 619.34125 182.2 
C 619.34125 182.916048 619.625739 183.602866 620.132062 184.109188 
C 620.638384 184.615511 621.325202 184.9 622.04125 184.9 
z
" clip-path="url(#pfc8dd7d76c)" style="stroke: #000000; stroke-width: 2; stroke-linejoin: miter"/>
   </g>
   <g id="patch_16">
    <path d="M 712.04125 184.9 
C 712.757298 184.9 713.444116 184.615511 713.950438 184.109188 
C 714.456761 183.602866 714.74125 182.916048 714.74125 182.2 
C 714.74125 181.483952 714.456761 180.797134 713.950438 180.290812 
C 713.444116 179.784489 712.757298 179.5 712.04125 179.5 
C 711.325202 179.5 710.638384 179.784489 710.132062 180.290812 
C 709.625739 180.797134 709.34125 181.483952 709.34125 182.2 
C 709.34125 182.916048 709.625739 183.602866 710.132062 184.109188 
C 710.638384 184.615511 711.325202 184.9 712.04125 184.9 
z
" clip-path="url(#pfc8dd7d76c)" style="fill: #ffffff; stroke: #000000; stroke-width: 2; stroke-linejoin: miter"/>
   </g>
   <g id="text_12">
    <!-- ESP32-S3 GPIO in -->
    <g transform="translate(718.34125 180.120312) scale(0.1 -0.1)">
     <use xlink:href="#DejaVuSans-45"/>
     <use xlink:href="#DejaVuSans-53" transform="translate(63.183594 0)"/>
     <use xlink:href="#DejaVuSans-50" transform="translate(126.660156 0)"/>
     <use xlink:href="#DejaVuSans-33" transform="translate(186.962891 0)"/>
     <use xlink:href="#DejaVuSans-32" transform="translate(250.585938 0)"/>
     <use xlink:href="#DejaVuSans-2d" transform="translate(314.208984 0)"/>
     <use xlink:href="#DejaVuSans-53" transform="translate(350.292969 0)"/>
     <use xlink:href="#DejaVuSans-33" transform="translate(413.769531 0)"/>
     <use xlink:href="#DejaVuSans-20" transform="translate(477.392578 0)"/>
     <use xlink:href="#DejaVuSans-47" transform="translate(509.179688 0)"/>
     <use xlink:href="#DejaVuSans-50" transform="translate(586.669922 0)"/>
     <use xlink:href="#DejaVuSans-49" transform="translate(646.972656 0)"/>
     <use xlink:href="#DejaVuSans-4f" transform="translate(676.464844 0)"/>
     <use xlink:href="#DejaVuSans-20" transform="translate(755.175781 0)"/>
     <use xlink:href="#DejaVuSans-69" transform="translate(786.962891 0)"/>
     <use xlink:href="#DejaVuSans-6e" transform="translate(814.746094 0)"/>
    </g>
    <!-- (active-low) -->
    <g transform="translate(718.34125 189.798437) scale(0.1 -0.1)">
     <use xlink:href="#DejaVuSans-28"/>
     <use xlink:href="#DejaVuSans-61" transform="translate(39.013672 0)"/>
     <use xlink:href="#DejaVuSans-63" transform="translate(100.292969 0)"/>
     <use xlink:href="#DejaVuSans-74" transform="translate(155.273438 0)"/>
     <use xlink:href="#DejaVuSans-69" transform="translate(194.482422 0)"/>
     <use xlink:href="#DejaVuSans-76" transform="translate(222.265625 0)"/>
     <use xlink:href="#DejaVuSans-65" transform="translate(281.445312 0)"/>
     <use xlink:href="#DejaVuSans-2d" transform="translate(342.96875 0)"/>
     <use xlink:href="#DejaVuSans-6c" transform="translate(379.052734 0)"/>
     <use xlink:href="#DejaVuSans-6f" transform="translate(406.835938 0)"/>
     <use xlink:href="#DejaVuSans-77" transform="translate(468.017578 0)"/>
     <use xlink:href="#DejaVuSans-29" transform="translate(549.804688 0)"/>
    </g>
   </g>
  </g>
 </g>
 <defs>
  <clipPath id="pfc8dd7d76c">
   <rect x="0.32125" y="-0" width="809.16" height="289.76"/>
  </clipPath>
 </defs>
</svg>
