<?xml version="1.0" encoding="UTF-8" standalone="no"?>
<svg
   viewBox="0 0 720 96"
   width="720"
   height="96"
   version="1.1"
   id="svg13"
   xmlns="http://www.w3.org/2000/svg"
   xmlns:svg="http://www.w3.org/2000/svg">
  <defs
     id="defs13" />
  <g
     transform="translate(0 12) scale(1.125)"
     id="g12">
    <path
       id="rect1"
       style="fill:none;stroke:#e8e8f0;stroke-width:1.75"
       d="m 7,4 h 50 c 1.662,0 3,1.338 3,3 v 50 c 0,1.662 -1.338,3 -3,3 H 7 C 5.338,60 4,58.662 4,57 V 7 C 4,5.338 5.338,4 7,4 Z" />
    <g
       stroke="#E8E8F0"
       id="g9">
      <g
         transform="translate(10 10)"
         id="g2">
        <path
           id="circle1"
           style="fill:none"
           d="M 2.5999999,0 A 2.5999999,2.5999999 0 0 1 0,2.5999999 2.5999999,2.5999999 0 0 1 -2.5999999,0 2.5999999,2.5999999 0 0 1 0,-2.5999999 2.5999999,2.5999999 0 0 1 2.5999999,0 Z" />
        <path
           id="line1"
           style="stroke-width:0.9"
           d="M -1.6,0 H 1.6" />
        <path
           id="line2"
           style="stroke-width:0.9"
           d="M 0,-1.6 V 1.6" />
      </g>
      <g
         transform="translate(54 10)"
         id="g4">
        <path
           id="circle2"
           style="fill:none"
           d="M 2.5999999,0 A 2.5999999,2.5999999 0 0 1 0,2.5999999 2.5999999,2.5999999 0 0 1 -2.5999999,0 2.5999999,2.5999999 0 0 1 0,-2.5999999 2.5999999,2.5999999 0 0 1 2.5999999,0 Z" />
        <path
           id="line3"
           style="stroke-width:0.9"
           d="M -1.6,0 H 1.6" />
        <path
           id="line4"
           style="stroke-width:0.9"
           d="M 0,-1.6 V 1.6" />
      </g>
      <g
         transform="translate(10 54)"
         id="g6">
        <path
           id="circle4"
           style="fill:none"
           d="M 2.5999999,0 A 2.5999999,2.5999999 0 0 1 0,2.5999999 2.5999999,2.5999999 0 0 1 -2.5999999,0 2.5999999,2.5999999 0 0 1 0,-2.5999999 2.5999999,2.5999999 0 0 1 2.5999999,0 Z" />
        <path
           id="line5"
           style="stroke-width:0.9"
           d="M -1.6,0 H 1.6" />
        <path
           id="line6"
           style="stroke-width:0.9"
           d="M 0,-1.6 V 1.6" />
      </g>
      <g
         transform="translate(54 54)"
         id="g8">
        <path
           id="circle6"
           style="fill:none"
           d="M 2.5999999,0 A 2.5999999,2.5999999 0 0 1 0,2.5999999 2.5999999,2.5999999 0 0 1 -2.5999999,0 2.5999999,2.5999999 0 0 1 0,-2.5999999 2.5999999,2.5999999 0 0 1 2.5999999,0 Z" />
        <path
           id="line7"
           style="stroke-width:0.9"
           d="M -1.6,0 H 1.6" />
        <path
           id="line8"
           style="stroke-width:0.9"
           d="M 0,-1.6 V 1.6" />
      </g>
    </g>
    <path
       id="circle9"
       style="opacity:0.55;fill:none;stroke:#e8e8f0"
       d="M 49,32 A 17,17 0 0 1 32,49 17,17 0 0 1 15,32 17,17 0 0 1 32,15 17,17 0 0 1 49,32 Z" />
    <path
       id="circle10"
       style="fill:#f0b030"
       d="M 45,32 A 13,13 0 0 1 32,45 13,13 0 0 1 19,32 13,13 0 0 1 32,19 13,13 0 0 1 45,32 Z" />
    <path
       id="circle11"
       style="fill:#e8e8f0"
       d="m 35,32 a 3,3 0 0 1 -3,3 3,3 0 0 1 -3,-3 3,3 0 0 1 3,-3 3,3 0 0 1 3,3 z" />
    <path
       id="circle12"
       style="fill:#f0b030"
       d="m 33,32 a 1,1 0 0 1 -1,1 1,1 0 0 1 -1,-1 1,1 0 0 1 1,-1 1,1 0 0 1 1,1 z" />
  </g>
  <g
     id="text13"
     style="font-size:48px;font-family:Metropolis, 'Josefin Sans', system-ui, sans-serif;letter-spacing:1"
     aria-label="AwesomeStudioPedal">
    <path
       style="fill:#e8e8f0"
       d="m 135.344,64 h 4.08 L 124.88,31.024 H 120.8 L 106.256,64 h 4.08 l 3.312,-7.488 h 18.384 z m -20.16,-11.04 7.68,-17.328 7.632,17.328 z M 149.01592,64 h 3.408 l 6.672,-19.824 6.576,19.824 h 3.408 l 8.352,-24.816 h -3.84 l -6.192,20.016 -6.768,-20.016 h -3.12 l -6.768,20.016 -6.192,-20.016 h -3.84 z m 43.62396,-2.64 c -4.896,0 -8.304,-3.552 -8.832,-8.4 h 20.304 c 0,-8.688 -4.272,-14.352 -11.76,-14.352 -6.672,0 -12.24,5.52 -12.24,12.912 0,7.632 5.952,13.056 12.576,13.056 3.456,0 7.824,-1.488 9.984,-3.84 l -2.208,-2.352 c -1.536,1.68 -4.896,2.976 -7.824,2.976 z m -0.144,-19.536 c 4.944,0 7.584,3.456 8.064,7.92 h -16.704 c 0.672,-4.8 4.224,-7.92 8.64,-7.92 z m 24.13586,22.752 c 5.136,0 9.072,-2.928 9.072,-7.488 0,-4.704 -4.128,-6.048 -8.112,-7.296 -4.608,-1.488 -6.432,-2.16 -6.432,-4.32 0,-2.4 2.304,-3.648 5.088,-3.648 2.208,0 4.656,0.768 7.152,2.352 l 1.728,-2.784 c -2.64,-1.728 -5.808,-2.784 -8.88,-2.784 -4.944,0 -8.688,2.784 -8.688,7.296 0,3.552 2.304,5.328 8.304,7.056 3.36,0.96 6.24,1.824 6.24,4.512 0,2.352 -2.208,3.888 -5.472,3.888 -2.736,0 -5.568,-1.056 -8.4,-3.12 l -1.872,2.64 c 2.976,2.4 6.816,3.696 10.272,3.696 z m 25.43186,0 c 7.008,0 12.768,-5.856 12.768,-13.008 0,-7.152 -5.76,-12.96 -12.768,-12.96 -7.056,0 -12.816,5.808 -12.816,12.96 0,7.152 5.76,13.008 12.816,13.008 z m 0,-3.216 c -4.992,0 -9.072,-4.416 -9.072,-9.792 0,-5.376 4.08,-9.744 9.072,-9.744 4.944,0 9.024,4.368 9.024,9.744 0,5.376 -4.08,9.792 -9.024,9.792 z m 45.01594,-22.752 c -3.696,0 -6.768,1.536 -8.64,4.08 -1.536,-2.544 -4.176,-4.08 -7.392,-4.08 -3.264,0 -5.952,1.632 -7.2,4.224 v -3.648 h -3.6 V 64 h 3.6 V 48.208 c 0,-3.744 2.784,-6.384 6.72,-6.384 3.36,0 5.712,2.832 5.712,6.864 V 64 h 3.6 V 48.208 c 0,-3.744 2.784,-6.384 6.72,-6.384 3.36,0 5.712,2.832 5.712,6.864 V 64 h 3.6 V 48.208 c 0,-5.616 -3.648,-9.6 -8.832,-9.6 z m 26.48792,22.752 c -4.896,0 -8.304,-3.552 -8.832,-8.4 h 20.304 c 0,-8.688 -4.272,-14.352 -11.76,-14.352 -6.672,0 -12.24,5.52 -12.24,12.912 0,7.632 5.952,13.056 12.576,13.056 3.456,0 7.824,-1.488 9.984,-3.84 l -2.208,-2.352 c -1.536,1.68 -4.896,2.976 -7.824,2.976 z m -0.144,-19.536 c 4.944,0 7.584,3.456 8.064,7.92 h -16.704 c 0.672,-4.8 4.224,-7.92 8.64,-7.92 z m 26.10387,22.704 c 7.68,0 11.616,-4.272 11.616,-9.504 0,-5.808 -4.512,-8.064 -10.8,-9.552 -5.616,-1.344 -8.88,-2.544 -8.88,-5.952 0,-3.024 2.976,-5.712 7.056,-5.712 3.456,0 6.72,1.584 9.456,4.224 l 2.304,-2.928 c -3.024,-2.784 -6.672,-4.704 -11.568,-4.704 -6.336,0 -11.04,4.128 -11.04,9.408 0,5.712 4.176,7.776 10.8,9.312 5.76,1.344 8.88,2.736 8.88,6.24 0,2.976 -2.592,5.76 -7.68,5.76 -4.608,0 -8.016,-1.968 -10.8,-4.752 l -2.352,2.928 c 3.312,3.264 7.584,5.232 13.008,5.232 z m 26.43989,-4.176 c -0.528,0.576 -1.488,1.008 -2.592,1.008 -1.44,0 -2.688,-1.296 -2.688,-3.12 V 42.4 h 6.096 v -3.216 h -6.096 v -6.816 h -3.6 v 6.816 h -3.888 V 42.4 h 3.888 v 15.84 c 0,3.696 2.496,6.336 6.048,6.336 1.68,0 3.312,-0.576 4.608,-1.584 z m 24.03997,-21.168 v 15.792 c 0,3.504 -3.456,6.384 -7.68,6.384 -3.648,0 -6.192,-2.784 -6.192,-6.864 V 39.184 h -3.6 v 15.792 c 0,5.712 3.792,9.6 9.312,9.6 3.552,0 6.72,-1.872 8.16,-4.512 V 64 h 3.6 V 39.184 Z m 29.55998,-8.736 V 43.84 c -1.872,-3.264 -5.04,-5.232 -9.024,-5.232 -6.528,0 -11.424,5.376 -11.424,12.96 0,7.632 4.896,13.008 11.424,13.008 3.984,0 7.152,-1.968 9.024,-5.232 V 64 h 3.6 V 30.448 Z m -8.352,30.912 c -4.848,0 -8.304,-4.08 -8.304,-9.792 0,-5.712 3.456,-9.744 8.304,-9.744 4.896,0 8.352,4.032 8.352,9.744 0,5.712 -3.456,9.792 -8.352,9.792 z m 20.34391,-26.688 c 1.296,0 2.352,-1.104 2.352,-2.4 0,-1.248 -1.056,-2.352 -2.352,-2.352 -1.344,0 -2.4,1.104 -2.4,2.352 0,1.296 1.056,2.4 2.4,2.4 z M 429.73508,64 h 3.6 V 39.184 h -3.6 z m 21.83196,0.576 c 7.008,0 12.768,-5.856 12.768,-13.008 0,-7.152 -5.76,-12.96 -12.768,-12.96 -7.056,0 -12.816,5.808 -12.816,12.96 0,7.152 5.76,13.008 12.816,13.008 z m 0,-3.216 c -4.992,0 -9.072,-4.416 -9.072,-9.792 0,-5.376 4.08,-9.744 9.072,-9.744 4.944,0 9.024,4.368 9.024,9.744 0,5.376 -4.08,9.792 -9.024,9.792 z"
       id="path13" />
    <path
       style="fill:#f0b030"
       d="m 470.75898,64 h 3.744 V 52.144 h 9.648 c 6.816,0 12.144,-4.368 12.144,-10.56 0,-6.192 -5.328,-10.56 -12.144,-10.56 h -13.392 z m 3.744,-15.408 V 34.576 h 8.976 c 5.376,0 9.024,2.592 9.024,7.008 0,4.416 -3.648,7.008 -9.024,7.008 z m 37.86386,12.768 c -4.896,0 -8.304,-3.552 -8.832,-8.4 h 20.304 c 0,-8.688 -4.272,-14.352 -11.76,-14.352 -6.672,0 -12.24,5.52 -12.24,12.912 0,7.632 5.952,13.056 12.576,13.056 3.456,0 7.824,-1.488 9.984,-3.84 l -2.208,-2.352 c -1.536,1.68 -4.896,2.976 -7.824,2.976 z m -0.144,-19.536 c 4.944,0 7.584,3.456 8.064,7.92 h -16.704 c 0.672,-4.8 4.224,-7.92 8.64,-7.92 z M 548.59879,30.448 V 43.84 c -1.872,-3.264 -5.04,-5.232 -9.024,-5.232 -6.528,0 -11.424,5.376 -11.424,12.96 0,7.632 4.896,13.008 11.424,13.008 3.984,0 7.152,-1.968 9.024,-5.232 V 64 h 3.6 V 30.448 Z m -8.352,30.912 c -4.848,0 -8.304,-4.08 -8.304,-9.792 0,-5.712 3.456,-9.744 8.304,-9.744 4.896,0 8.352,4.032 8.352,9.744 0,5.712 -3.456,9.792 -8.352,9.792 z M 568.9427,38.608 c -2.4,0 -5.376,0.624 -8.928,2.4 l 1.44,2.928 c 2.256,-1.152 4.752,-2.256 7.248,-2.256 5.376,0 6.72,3.84 6.72,7.2 v 0.912 c -2.544,-0.816 -5.376,-1.392 -8.064,-1.392 -5.328,0 -9.744,3.312 -9.744,8.256 0,4.896 3.84,7.92 9.072,7.92 3.264,0 6.96,-1.536 8.736,-4.464 V 64 h 3.6 V 48.88 c 0,-6 -3.312,-10.272 -10.08,-10.272 z m -1.632,22.8 c -3.504,0 -6.192,-1.824 -6.192,-4.896 0,-2.976 3.12,-5.088 6.816,-5.088 2.688,0 5.232,0.384 7.488,1.008 v 3.792 c -0.96,3.504 -4.848,5.184 -8.112,5.184 z M 585.25467,64 h 3.6 V 30.448 h -3.6 z"
       id="path14" />
  </g>
</svg>
