<?xml version="1.0" encoding="UTF-8" standalone="no"?>
<svg
   viewBox="0 0 640 96"
   width="640"
   height="96"
   version="1.1"
   id="svg2"
   xmlns="http://www.w3.org/2000/svg"
   xmlns:svg="http://www.w3.org/2000/svg">
  <defs
     id="defs2" />
  <g
     id="text2"
     style="font-size:60px;font-family:Metropolis, 'Josefin Sans', system-ui, sans-serif;letter-spacing:1.2"
     aria-label="AwesomeStudioPedal">
    <path
       style="fill:#e8e8f0"
       d="m 39.18,64 h 5.1 L 26.1,22.78 H 21 L 2.82,64 h 5.1 l 4.14,-9.36 H 35.04 Z M 13.98,50.2 23.58,28.54 33.12,50.2 Z M 56.219895,64 h 4.26 l 8.34,-24.78 8.22,24.78 h 4.26 l 10.44,-31.02 h -4.8 l -7.74,25.02 -8.46,-25.02 h -3.9 l -8.46,25.02 -7.74,-25.02 h -4.8 z m 54.479955,-3.3 c -6.12,0 -10.38,-4.44 -11.039998,-10.5 h 25.379998 c 0,-10.86 -5.34,-17.94 -14.7,-17.94 -8.34,0 -15.299998,6.9 -15.299998,16.14 0,9.54 7.439998,16.32 15.719998,16.32 4.32,0 9.78,-1.86 12.48,-4.8 l -2.76,-2.94 c -1.92,2.1 -6.12,3.72 -9.78,3.72 z m -0.18,-24.42 c 6.18,0 9.48,4.32 10.08,9.9 H 99.719852 c 0.839998,-6 5.279998,-9.9 10.799998,-9.9 z m 30.11983,28.44 c 6.42,0 11.34,-3.66 11.34,-9.36 0,-5.88 -5.16,-7.56 -10.14,-9.12 -5.76,-1.86 -8.04,-2.7 -8.04,-5.4 0,-3 2.88,-4.56 6.36,-4.56 2.76,0 5.82,0.96 8.94,2.94 l 2.16,-3.48 c -3.3,-2.16 -7.26,-3.48 -11.1,-3.48 -6.18,0 -10.86,3.48 -10.86,9.12 0,4.44 2.88,6.66 10.38,8.82 4.2,1.2 7.8,2.28 7.8,5.64 0,2.94 -2.76,4.86 -6.84,4.86 -3.42,0 -6.96,-1.32 -10.5,-3.9 l -2.34,3.3 c 3.72,3 8.52,4.62 12.84,4.62 z m 31.73981,0 c 8.76,0 15.96,-7.32 15.96,-16.26 0,-8.94 -7.2,-16.2 -15.96,-16.2 -8.82,0 -16.02,7.26 -16.02,16.2 0,8.94 7.2,16.26 16.02,16.26 z m 0,-4.02 c -6.24,0 -11.34,-5.52 -11.34,-12.24 0,-6.72 5.1,-12.18 11.34,-12.18 6.18,0 11.28,5.46 11.28,12.18 0,6.72 -5.1,12.24 -11.28,12.24 z m 56.21993,-28.44 c -4.62,0 -8.46,1.92 -10.8,5.1 -1.92,-3.18 -5.22,-5.1 -9.24,-5.1 -4.08,0 -7.44,2.04 -9,5.28 v -4.56 h -4.5 V 64 h 4.5 V 44.26 c 0,-4.68 3.48,-7.98 8.4,-7.98 4.2,0 7.14,3.54 7.14,8.58 V 64 h 4.5 V 44.26 c 0,-4.68 3.48,-7.98 8.4,-7.98 4.2,0 7.14,3.54 7.14,8.58 V 64 h 4.5 V 44.26 c 0,-7.02 -4.56,-12 -11.04,-12 z m 33.0599,28.44 c -6.12,0 -10.38,-4.44 -11.04,-10.5 h 25.38 c 0,-10.86 -5.34,-17.94 -14.7,-17.94 -8.34,0 -15.3,6.9 -15.3,16.14 0,9.54 7.44,16.32 15.72,16.32 4.32,0 9.78,-1.86 12.48,-4.8 l -2.76,-2.94 c -1.92,2.1 -6.12,3.72 -9.78,3.72 z m -0.18,-24.42 c 6.18,0 9.48,4.32 10.08,9.9 h -20.88 c 0.84,-6 5.28,-9.9 10.8,-9.9 z m 32.57984,28.38 c 9.6,0 14.52,-5.34 14.52,-11.88 0,-7.26 -5.64,-10.08 -13.5,-11.94 -7.02,-1.68 -11.1,-3.18 -11.1,-7.44 0,-3.78 3.72,-7.14 8.82,-7.14 4.32,0 8.4,1.98 11.82,5.28 l 2.88,-3.66 c -3.78,-3.48 -8.34,-5.88 -14.46,-5.88 -7.92,0 -13.8,5.16 -13.8,11.76 0,7.14 5.22,9.72 13.5,11.64 7.2,1.68 11.1,3.42 11.1,7.8 0,3.72 -3.24,7.2 -9.6,7.2 -5.76,0 -10.02,-2.46 -13.5,-5.94 l -2.94,3.66 c 4.14,4.08 9.48,6.54 16.26,6.54 z m 32.99985,-5.22 c -0.66,0.72 -1.86,1.26 -3.24,1.26 -1.8,0 -3.36,-1.62 -3.36,-3.9 V 37 h 7.62 v -4.02 h -7.62 v -8.52 h -4.5 v 8.52 h -4.86 V 37 h 4.86 v 19.8 c 0,4.62 3.12,7.92 7.56,7.92 2.1,0 4.14,-0.72 5.76,-1.98 z m 29.99998,-26.46 v 19.74 c 0,4.38 -4.32,7.98 -9.6,7.98 -4.56,0 -7.74,-3.48 -7.74,-8.58 V 32.98 h -4.5 v 19.74 c 0,7.14 4.74,12 11.64,12 4.44,0 8.4,-2.34 10.2,-5.64 V 64 h 4.5 V 32.98 Z M 393.95896,22.06 V 38.8 c -2.34,-4.08 -6.3,-6.54 -11.28,-6.54 -8.16,0 -14.28,6.72 -14.28,16.2 0,9.54 6.12,16.26 14.28,16.26 4.98,0 8.94,-2.46 11.28,-6.54 V 64 h 4.5 V 22.06 Z m -10.44,38.64 c -6.06,0 -10.38,-5.1 -10.38,-12.24 0,-7.14 4.32,-12.18 10.38,-12.18 6.12,0 10.44,5.04 10.44,12.18 0,7.14 -4.32,12.24 -10.44,12.24 z m 25.37989,-33.36 c 1.62,0 2.94,-1.38 2.94,-3 0,-1.56 -1.32,-2.94 -2.94,-2.94 -1.68,0 -3,1.38 -3,2.94 0,1.62 1.32,3 3,3 z m -2.28,36.66 h 4.5 V 32.98 h -4.5 z m 27.23995,0.72 c 8.76,0 15.96,-7.32 15.96,-16.26 0,-8.94 -7.2,-16.2 -15.96,-16.2 -8.82,0 -16.02,7.26 -16.02,16.2 0,8.94 7.2,16.26 16.02,16.26 z m 0,-4.02 c -6.24,0 -11.34,-5.52 -11.34,-12.24 0,-6.72 5.1,-12.18 11.34,-12.18 6.18,0 11.28,5.46 11.28,12.18 0,6.72 -5.1,12.24 -11.28,12.24 z"
       id="path2" />
    <path
       style="fill:#f0b030"
       d="m 457.79874,64 h 4.68 V 49.18 h 12.06 c 8.52,0 15.18,-5.46 15.18,-13.2 0,-7.74 -6.66,-13.2 -15.18,-13.2 h -16.74 z m 4.68,-19.26 V 27.22 h 11.22 c 6.72,0 11.28,3.24 11.28,8.76 0,5.52 -4.56,8.76 -11.28,8.76 z m 47.2798,15.96 c -6.12,0 -10.38,-4.44 -11.04,-10.5 h 25.38 c 0,-10.86 -5.34,-17.94 -14.7,-17.94 -8.34,0 -15.3,6.9 -15.3,16.14 0,9.54 7.44,16.32 15.72,16.32 4.32,0 9.78,-1.86 12.48,-4.8 l -2.76,-2.94 c -1.92,2.1 -6.12,3.72 -9.78,3.72 z m -0.18,-24.42 c 6.18,0 9.48,4.32 10.08,9.9 h -20.88 c 0.84,-6 5.28,-9.9 10.8,-9.9 z M 554.99851,22.06 V 38.8 c -2.34,-4.08 -6.3,-6.54 -11.28,-6.54 -8.16,0 -14.28,6.72 -14.28,16.2 0,9.54 6.12,16.26 14.28,16.26 4.98,0 8.94,-2.46 11.28,-6.54 V 64 h 4.5 V 22.06 Z m -10.44,38.64 c -6.06,0 -10.38,-5.1 -10.38,-12.24 0,-7.14 4.32,-12.18 10.38,-12.18 6.12,0 10.44,5.04 10.44,12.18 0,7.14 -4.32,12.24 -10.44,12.24 z M 580.3784,32.26 c -3,0 -6.72,0.78 -11.16,3 l 1.8,3.66 c 2.82,-1.44 5.94,-2.82 9.06,-2.82 6.72,0 8.4,4.8 8.4,9 v 1.14 c -3.18,-1.02 -6.72,-1.74 -10.08,-1.74 -6.66,0 -12.18,4.14 -12.18,10.32 0,6.12 4.8,9.9 11.34,9.9 4.08,0 8.7,-1.92 10.92,-5.58 V 64 h 4.5 V 45.1 c 0,-7.5 -4.14,-12.84 -12.6,-12.84 z m -2.04,28.5 c -4.38,0 -7.74,-2.28 -7.74,-6.12 0,-3.72 3.9,-6.36 8.52,-6.36 3.36,0 6.54,0.48 9.36,1.26 v 4.74 c -1.2,4.38 -6.06,6.48 -10.14,6.48 z M 600.71834,64 h 4.5 V 22.06 h -4.5 z"
       id="path3" />
  </g>
</svg>
